<?xml version="1.0" encoding="utf-8"?>
<svg id="master-artboard" viewBox="0 0 2500 700" xmlns="http://www.w3.org/2000/svg" width="2500px" height="700px" version="1.1" style="shape-rendering:geometricPrecision; text-rendering:geometricPrecision; image-rendering:optimizeQuality; fill-rule:evenodd; clip-rule:evenodd"><rect id="ee-background" x="0" y="0" width="2500" height="700" style="fill: white; fill-opacity: 0; pointer-events: none;"/><defs><style id="ee-google-fonts">@import url(https://fonts.googleapis.com/css?family=Damion:400);</style></defs><path d="M 223.65750122070312 276.99237060546875 C 223.65750122070312 279.5723571777344 223.25083923339844 282.682373046875 222.4375 286.3223571777344 C 221.62416076660156 289.9556884765625 220.45416259765625 293.73236083984375 218.92750549316406 297.65234375 C 217.3941650390625 301.57904052734375 215.5508270263672 305.47900390625 213.3975067138672 309.35235595703125 C 211.24417114257812 313.2256774902344 208.7808380126953 316.7156982421875 206.00750732421875 319.8223571777344 C 203.23416137695312 322.9356689453125 200.22084045410156 325.44903564453125 196.96749877929688 327.36236572265625 C 193.71417236328125 329.27569580078125 190.2241668701172 330.23236083984375 186.49749755859375 330.23236083984375 C 185.6374969482422 330.23236083984375 184.51416015625 330.15899658203125 183.12750244140625 330.0123291015625 C 181.74082946777344 329.8723449707031 180.350830078125 329.53900146484375 178.95750427246094 329.0123291015625 C 177.57083129882812 328.4856872558594 176.37750244140625 327.6956787109375 175.37750244140625 326.642333984375 C 174.37083435058594 325.5890197753906 173.86749267578125 324.20233154296875 173.86749267578125 322.48236083984375 C 173.86749267578125 321.335693359375 174.17750549316406 319.99566650390625 174.79750061035156 318.46234130859375 C 175.42416381835938 316.92901611328125 176.5508270263672 315.15899658203125 178.17750549316406 313.15234375 C 179.8975067138672 311.239013671875 181.76083374023438 308.9656982421875 183.7675018310547 306.33233642578125 C 185.774169921875 303.7056884765625 187.59083557128906 300.9556884765625 189.21749877929688 298.08233642578125 C 190.8441619873047 295.2156982421875 192.20750427246094 292.39569091796875 193.3074951171875 289.6223449707031 C 194.40750122070312 286.8489990234375 194.95750427246094 284.36236572265625 194.95750427246094 282.162353515625 C 194.95750427246094 279.3890380859375 194.3141632080078 277.162353515625 193.02749633789062 275.48236083984375 C 191.73416137695312 273.80902099609375 189.50750732421875 272.97235107421875 186.34750366210938 272.97235107421875 C 182.23416137695312 272.97235107421875 177.59750366210938 274.3123474121094 172.4375 276.99237060546875 C 167.2708282470703 279.67236328125 161.86416625976562 283.3556823730469 156.21749877929688 288.0423583984375 C 150.57749938964844 292.72900390625 144.83749389648438 298.2056884765625 138.99749755859375 304.47235107421875 C 133.16416931152344 310.739013671875 127.52083587646484 317.4356689453125 122.06749725341797 324.5623474121094 C 116.61416625976562 331.68902587890625 111.47083282470703 339.10235595703125 106.63749694824219 346.8023681640625 C 101.81083679199219 354.5023498535156 97.60416412353516 362.1056823730469 94.01750183105469 369.61236572265625 C 90.43083190917969 377.12567138671875 87.60749816894531 384.3489990234375 85.54750061035156 391.2823486328125 C 83.49417114257812 398.2156982421875 82.46749877929688 404.50567626953125 82.46749877929688 410.15234375 C 82.46749877929688 417.1390075683594 84.3308334350586 422.7356872558594 88.0574951171875 426.9423522949219 C 91.79083251953125 431.1490173339844 97.96083068847656 433.2523498535156 106.56749725341797 433.2523498535156 C 110.5875015258789 433.2523498535156 116.56749725341797 431.6990051269531 124.50749969482422 428.59234619140625 C 132.447509765625 425.4856872558594 139.07083129882812 422.37567138671875 144.37750244140625 419.2623596191406 C 149.69082641601562 416.15570068359375 155.04750061035156 412.71234130859375 160.44749450683594 408.9323425292969 C 165.8541717529297 405.15234375 170.99749755859375 401.5190124511719 175.87750244140625 398.0323486328125 C 180.75750732421875 394.53900146484375 185.20416259765625 391.3823547363281 189.21749877929688 388.5623474121094 C 193.2375030517578 385.7356872558594 196.54083251953125 383.7490234375 199.12750244140625 382.60235595703125 C 199.600830078125 382.22235107421875 200.17416381835938 382.0323486328125 200.84750366210938 382.0323486328125 C 202.2808380126953 382.0323486328125 203.26083374023438 383.2023620605469 203.78750610351562 385.5423583984375 C 204.3141632080078 387.8890075683594 204.57749938964844 390.5456848144531 204.57749938964844 393.5123596191406 C 204.57749938964844 395.1323547363281 204.36083984375 397.1156921386719 203.92750549316406 399.46234130859375 C 203.50083923339844 401.80902099609375 202.1374969482422 404.5123596191406 199.83749389648438 407.5723571777344 C 198.78416442871094 408.8123474121094 196.8241729736328 410.9156799316406 193.95750427246094 413.8823547363281 C 191.08416748046875 416.8490295410156 187.49749755859375 420.1990051269531 183.19749450683594 423.9323425292969 C 178.89083862304688 427.6590270996094 173.96417236328125 431.5323486328125 168.41749572753906 435.5523376464844 C 162.87083435058594 439.5723571777344 156.86749267578125 443.25567626953125 150.40750122070312 446.60235595703125 C 143.947509765625 449.9490051269531 135.62417602539062 453.2490234375 125.4375 456.5023498535156 C 115.2508316040039 459.75567626953125 106.37750244140625 461.3823547363281 98.81749725341797 461.3823547363281 C 89.92416381835938 461.3823547363281 82.32083129882812 460.3056945800781 76.00749969482422 458.15234375 C 69.69416809082031 455.9990234375 64.52749633789062 453.009033203125 60.50749969482422 449.1823425292969 C 56.49416732788086 445.3556823730469 53.554168701171875 440.7890319824219 51.6875 435.48236083984375 C 49.820831298828125 430.16900634765625 48.88750076293945 424.3556823730469 48.88750076293945 418.0423583984375 C 48.88750076293945 410.2023620605469 50.08416748046875 401.7856750488281 52.477500915527344 392.7923583984375 C 54.864166259765625 383.79901123046875 58.1875 374.662353515625 62.4474983215332 365.3823547363281 C 66.70083618164062 356.10235595703125 71.77082824707031 346.8223571777344 77.65750122070312 337.5423583984375 C 83.5374984741211 328.2690124511719 89.99417114257812 319.3990173339844 97.02749633789062 310.932373046875 C 104.06083679199219 302.4656982421875 111.54750061035156 294.595703125 119.48750305175781 287.3223571777344 C 127.42749786376953 280.0556640625 135.5574951171875 273.74237060546875 143.87750244140625 268.3823547363281 C 152.197509765625 263.0290222167969 160.5675048828125 258.81903076171875 168.9875030517578 255.75234985351562 C 177.40750122070312 252.69235229492188 185.68417358398438 251.162353515625 193.8175048828125 251.162353515625 C 197.83082580566406 251.162353515625 201.65750122070312 251.6190185546875 205.29750061035156 252.5323486328125 C 208.9308319091797 253.4390106201172 212.11083984375 254.89569091796875 214.83749389648438 256.90234375 C 217.5641632080078 258.9156799316406 219.71417236328125 261.5723571777344 221.28750610351562 264.8723449707031 C 222.86749267578125 268.17236328125 223.65750122070312 272.21234130859375 223.65750122070312 276.99237060546875 ZM 252.93487548828125 451.48236083984375 C 251.494873046875 454.3490295410156 249.77154541015625 456.8823547363281 247.76486206054688 459.08233642578125 C 245.75820922851562 461.2823486328125 243.60487365722656 463.0990295410156 241.30487060546875 464.5323486328125 C 239.01153564453125 465.97235107421875 236.668212890625 467.04901123046875 234.27487182617188 467.7623596191406 C 231.88821411132812 468.48236083984375 229.64154052734375 468.84234619140625 227.5348663330078 468.84234619140625 C 224.47486877441406 468.84234619140625 221.89154052734375 468.0523376464844 219.7848663330078 466.47235107421875 C 217.67820739746094 464.8923645019531 216.6248779296875 462.5723571777344 216.6248779296875 459.5123596191406 C 216.6248779296875 458.4590148925781 216.744873046875 457.2890319824219 216.98486328125 456.0023498535156 C 217.22486877441406 454.7090148925781 217.72821044921875 453.2956848144531 218.494873046875 451.7623596191406 C 225.76153564453125 436.7423400878906 233.00820922851562 422.29901123046875 240.23486328125 408.4323425292969 C 247.45486450195312 394.55902099609375 254.43820190429688 381.595703125 261.18487548828125 369.5423583984375 C 267.92486572265625 357.489013671875 274.3081970214844 346.5123596191406 280.3348693847656 336.61236572265625 C 286.3615417480469 326.71234130859375 291.83819580078125 318.24566650390625 296.7648620605469 311.21234130859375 C 301.6915283203125 304.1856689453125 305.90155029296875 298.759033203125 309.3948669433594 294.932373046875 C 312.88818359375 291.1056823730469 315.4482116699219 289.1923522949219 317.07489013671875 289.1923522949219 C 320.4215393066406 289.1923522949219 322.908203125 290.1490173339844 324.53485107421875 292.0623474121094 C 326.16156005859375 293.9756774902344 326.974853515625 296.22235107421875 326.974853515625 298.8023681640625 C 326.974853515625 300.90899658203125 326.4482116699219 303.0123291015625 325.3948669433594 305.11236572265625 C 323.00152587890625 309.99237060546875 320.2982177734375 315.5190124511719 317.28485107421875 321.6923522949219 C 314.27154541015625 327.8590087890625 311.091552734375 334.412353515625 307.744873046875 341.35235595703125 C 304.398193359375 348.2856750488281 300.908203125 355.4590148925781 297.2748718261719 362.8723449707031 C 293.6348876953125 370.2856750488281 290.04486083984375 377.65234375 286.5048828125 384.97235107421875 C 282.9648742675781 392.2856750488281 279.4981994628906 399.36236572265625 276.1048583984375 406.2023620605469 C 272.7115478515625 413.0423583984375 269.55487060546875 419.3823547363281 266.6348876953125 425.22235107421875 C 263.7148742675781 431.0556945800781 261.0848693847656 436.2456970214844 258.744873046875 440.7923583984375 C 256.398193359375 445.33233642578125 254.4615478515625 448.89569091796875 252.93487548828125 451.48236083984375 M 420.67486572265625 283.59234619140625 C 420.67486572265625 285.3123474121094 420.0281982421875 287.72900390625 418.73486328125 290.84234619140625 C 417.4415283203125 293.94903564453125 415.6248779296875 296.9856872558594 413.28485107421875 299.95233154296875 C 410.9382019042969 302.91900634765625 408.1148681640625 305.5023498535156 404.81488037109375 307.70233154296875 C 401.514892578125 309.90234375 397.85821533203125 311.0023498535156 393.8448791503906 311.0023498535156 C 392.8848876953125 311.0023498535156 391.6882019042969 310.92901611328125 390.2548828125 310.7823486328125 C 388.821533203125 310.642333984375 387.408203125 310.28570556640625 386.014892578125 309.71234130859375 C 384.6282043457031 309.1390380859375 383.45819091796875 308.32568359375 382.5048828125 307.2723388671875 C 381.54486083984375 306.2190246582031 381.06488037109375 304.83233642578125 381.06488037109375 303.11236572265625 C 381.06488037109375 302.24566650390625 381.4981994628906 301.02569580078125 382.3648681640625 299.45233154296875 C 383.224853515625 297.8723449707031 384.1548767089844 296.17236328125 385.1548767089844 294.35235595703125 C 386.16156005859375 292.53900146484375 387.0948791503906 290.7690124511719 387.9548645019531 289.0423583984375 C 388.81488037109375 287.3223571777344 389.244873046875 285.8890380859375 389.244873046875 284.74237060546875 C 389.244873046875 281.489013671875 386.9515380859375 279.1223449707031 382.3648681640625 277.642333984375 C 377.77154541015625 276.15570068359375 370.0682067871094 275.412353515625 359.2548828125 275.412353515625 C 348.4482116699219 275.79901123046875 338.6915283203125 276.4456787109375 329.98486328125 277.35235595703125 C 321.2781982421875 278.259033203125 313.244873046875 279.40570068359375 305.8848876953125 280.7923583984375 C 298.5181884765625 282.17901611328125 291.6282043457031 283.7823486328125 285.2148742675781 285.60235595703125 C 278.8081970214844 287.42236328125 272.494873046875 289.3590087890625 266.2748718261719 291.412353515625 C 260.05487060546875 293.47235107421875 253.76486206054688 295.67236328125 247.40487670898438 298.0123291015625 C 241.04486083984375 300.3590087890625 234.2781982421875 302.7256774902344 227.10487365722656 305.11236572265625 C 226.43153381347656 305.3056640625 225.7848663330078 305.4990234375 225.1648712158203 305.6923522949219 C 224.5448760986328 305.88568115234375 223.994873046875 305.98236083984375 223.51487731933594 305.98236083984375 C 221.9882049560547 305.98236083984375 220.60153198242188 305.64569091796875 219.35487365722656 304.97235107421875 C 218.1082000732422 304.3056640625 217.0315399169922 303.3990173339844 216.1248779296875 302.2523498535156 C 215.21820068359375 301.0989990234375 214.5015411376953 299.8056640625 213.97486877441406 298.3723449707031 C 213.44821166992188 296.93902587890625 213.18487548828125 295.4556884765625 213.18487548828125 293.92236328125 C 213.18487548828125 291.4356689453125 215.1948699951172 288.6390380859375 219.21487426757812 285.5323486328125 C 223.22821044921875 282.41900634765625 228.72821044921875 279.28570556640625 235.71487426757812 276.1323547363281 C 242.6948699951172 272.97235107421875 250.92153930664062 269.88568115234375 260.3948669433594 266.8723449707031 C 269.8615417480469 263.8590087890625 280.071533203125 261.182373046875 291.0248718261719 258.84234619140625 C 301.97821044921875 256.49566650390625 313.41156005859375 254.62901306152344 325.32489013671875 253.2423553466797 C 337.2315368652344 251.85568237304688 349.11822509765625 251.162353515625 360.98486328125 251.162353515625 C 371.21820068359375 251.162353515625 380.06488037109375 251.97567749023438 387.5248718261719 253.60235595703125 C 394.98486328125 255.22901916503906 401.1548767089844 257.47900390625 406.03485107421875 260.35235595703125 C 410.91485595703125 263.2190246582031 414.5515441894531 266.6390380859375 416.94488525390625 270.61236572265625 C 419.33154296875 274.57904052734375 420.57489013671875 278.90570068359375 420.67486572265625 283.59234619140625 ZM 468.3142395019531 378.3023681640625 C 471.08758544921875 378.3023681640625 473.12091064453125 379.4256896972656 474.41424560546875 381.67236328125 C 475.700927734375 383.91900634765625 476.34423828125 386.4756774902344 476.34423828125 389.34234619140625 C 476.34423828125 390.7823486328125 476.200927734375 392.02569580078125 475.91424560546875 393.0723571777344 C 475.6275939941406 394.12567138671875 475.05426025390625 395.1090087890625 474.1942443847656 396.0223388671875 C 473.3342590332031 396.92901611328125 472.1875915527344 397.78900146484375 470.7542419433594 398.60235595703125 C 469.3142395019531 399.4156799316406 467.44757080078125 400.29901123046875 465.15423583984375 401.2523498535156 C 459.8009033203125 403.5523681640625 455.5909118652344 406.3023681640625 452.5242614746094 409.5023498535156 C 449.4642333984375 412.7090148925781 447.93426513671875 415.892333984375 447.93426513671875 419.0523681640625 C 447.93426513671875 421.05902099609375 448.604248046875 422.97235107421875 449.9442443847656 424.7923583984375 C 451.28424072265625 426.6056823730469 453.3875732421875 428.2056884765625 456.2542419433594 429.59234619140625 C 459.1275939941406 430.97900390625 462.83758544921875 432.0790100097656 467.3842468261719 432.8923645019531 C 471.92425537109375 433.7056884765625 477.3975830078125 434.11236572265625 483.80426025390625 434.11236572265625 C 490.4109191894531 434.11236572265625 496.6775817871094 433.32568359375 502.604248046875 431.7523498535156 C 508.53759765625 430.17236328125 513.7276000976562 427.9456787109375 518.1742553710938 425.0723571777344 C 522.6209106445312 422.2056884765625 526.160888671875 418.8123474121094 528.7942504882812 414.892333984375 C 531.4276123046875 410.9656982421875 532.7442626953125 406.7056884765625 532.7442626953125 402.11236572265625 C 532.7442626953125 398.67236328125 531.3076171875 395.085693359375 528.4342651367188 391.35235595703125 C 525.5675659179688 387.62567138671875 521.0242309570312 383.7523498535156 514.8042602539062 379.73236083984375 C 503.80426025390625 372.55902099609375 495.45758056640625 366.7723388671875 489.7642517089844 362.3723449707031 C 484.0709228515625 357.97235107421875 480.55426025390625 355.19903564453125 479.2142333984375 354.0523681640625 C 472.0409240722656 347.73236083984375 466.68426513671875 341.65570068359375 463.1442565917969 335.8223571777344 C 459.604248046875 329.989013671875 457.8342590332031 323.9156799316406 457.8342590332031 317.60235595703125 C 457.8342590332031 311.7690124511719 459.2475891113281 306.07568359375 462.0742492675781 300.5223388671875 C 464.8942565917969 294.9756774902344 468.6942443847656 289.7623291015625 473.4742431640625 284.8823547363281 C 478.26092529296875 280.0023498535156 483.78759765625 275.48236083984375 490.05426025390625 271.3223571777344 C 496.3209228515625 267.162353515625 502.874267578125 263.5989990234375 509.7142333984375 260.6323547363281 C 516.547607421875 257.6656799316406 523.4342651367188 255.34568786621094 530.374267578125 253.67234802246094 C 537.3076171875 251.9990234375 543.88427734375 251.162353515625 550.104248046875 251.162353515625 C 554.7908935546875 251.162353515625 559.1175537109375 251.6890106201172 563.084228515625 252.7423553466797 C 567.0576171875 253.79568481445312 570.527587890625 255.4456787109375 573.4942626953125 257.6923522949219 C 576.4609375 259.93902587890625 578.7808837890625 262.83233642578125 580.4542236328125 266.3723449707031 C 582.1275634765625 269.912353515625 582.9642333984375 274.16900634765625 582.9642333984375 279.142333984375 C 582.9642333984375 286.315673828125 580.9075927734375 293.15570068359375 576.7942504882812 299.662353515625 C 572.680908203125 306.16900634765625 566.4142456054688 312.24566650390625 557.9942626953125 317.892333984375 C 554.2609252929688 320.47235107421875 550.8175659179688 321.7623291015625 547.6642456054688 321.7623291015625 C 544.410888671875 321.7623291015625 541.8275756835938 320.5890197753906 539.9142456054688 318.24237060546875 C 538.0009155273438 315.90234375 537.0442504882812 313.15234375 537.0442504882812 309.99237060546875 C 537.0442504882812 307.31903076171875 537.834228515625 304.642333984375 539.4142456054688 301.96234130859375 C 540.9942626953125 299.2823486328125 543.5509033203125 296.9856872558594 547.084228515625 295.0723571777344 C 549.8642578125 293.6390380859375 552.3275756835938 291.70233154296875 554.4742431640625 289.2623291015625 C 556.6275634765625 286.8223571777344 557.7042236328125 284.4556884765625 557.7042236328125 282.162353515625 C 557.7042236328125 279.96234130859375 556.9642333984375 278.52569580078125 555.4842529296875 277.85235595703125 C 553.99755859375 277.1856689453125 552.2042236328125 276.85235595703125 550.104248046875 276.85235595703125 C 546.084228515625 276.85235595703125 541.7075805664062 277.35235595703125 536.9742431640625 278.35235595703125 C 532.2409057617188 279.3590087890625 527.5042724609375 280.72235107421875 522.7642822265625 282.4423522949219 C 518.0308837890625 284.16900634765625 513.44091796875 286.2256774902344 508.9942626953125 288.61236572265625 C 504.5475769042969 291.00567626953125 500.624267578125 293.5890197753906 497.2242431640625 296.36236572265625 C 493.8309326171875 299.13568115234375 491.104248046875 302.07904052734375 489.04425048828125 305.1923522949219 C 486.99090576171875 308.29901123046875 485.9642333984375 311.3823547363281 485.9642333984375 314.4423522949219 C 485.9642333984375 316.54901123046875 486.3942565917969 318.509033203125 487.2542419433594 320.3223571777344 C 488.1142578125 322.142333984375 489.38092041015625 323.96234130859375 491.05426025390625 325.7823486328125 C 492.72760009765625 327.595703125 494.76092529296875 329.4856872558594 497.15423583984375 331.4523620605469 C 499.5475769042969 333.412353515625 502.3209228515625 335.53900146484375 505.4742431640625 337.83233642578125 L 539.0542602539062 362.65234375 C 543.3609008789062 365.8123474121094 547.2109375 368.8990173339844 550.604248046875 371.912353515625 C 553.99755859375 374.9256896972656 556.84423828125 377.93902587890625 559.144287109375 380.9523620605469 C 561.4375610351562 383.9656982421875 563.2075805664062 387.0023498535156 564.4542236328125 390.0623474121094 C 565.6942138671875 393.1223449707031 566.3142700195312 396.37567138671875 566.3142700195312 399.8223571777344 C 566.3142700195312 407.4756774902344 564.3309326171875 414.96234130859375 560.3642578125 422.2823486328125 C 556.3909301757812 429.5956726074219 550.74755859375 436.1223449707031 543.4342651367188 441.86236572265625 C 536.1142578125 447.60235595703125 527.3109130859375 452.2423400878906 517.0242309570312 455.7823486328125 C 506.7442626953125 459.3223571777344 495.33758544921875 461.09234619140625 482.80426025390625 461.09234619140625 C 471.13092041015625 461.09234619140625 461.20758056640625 460.1590270996094 453.03424072265625 458.2923583984375 C 444.854248046875 456.4256896972656 438.1342468261719 453.8923645019531 432.874267578125 450.6923522949219 C 427.6075744628906 447.4856872558594 423.7809143066406 443.8023376464844 421.3942565917969 439.6423645019531 C 419.00091552734375 435.48236083984375 417.80426025390625 431.1056823730469 417.80426025390625 426.5123596191406 C 417.80426025390625 421.7256774902344 419.0242614746094 416.8690185546875 421.4642639160156 411.9423522949219 C 423.90423583984375 407.01568603515625 427.34759521484375 402.35235595703125 431.79425048828125 397.9523620605469 C 436.24090576171875 393.5523681640625 441.5742492675781 389.6323547363281 447.79425048828125 386.1923522949219 C 454.0142517089844 382.74566650390625 460.854248046875 380.1156921386719 468.3142395019531 378.3023681640625 ZM 633.1797485351562 379.162353515625 C 628.6864013671875 379.162353515625 624.3597412109375 380.2856750488281 620.19970703125 382.5323486328125 C 616.0397338867188 384.7790222167969 612.3563842773438 387.7423400878906 609.1497192382812 391.42236328125 C 605.9430541992188 395.1090087890625 603.383056640625 399.2723388671875 601.4697265625 403.912353515625 C 599.556396484375 408.5523681640625 598.5997314453125 413.3123474121094 598.5997314453125 418.1923522949219 C 598.5997314453125 420.00567626953125 598.7430419921875 421.989013671875 599.0297241210938 424.142333984375 C 599.31640625 426.2956848144531 599.9163818359375 428.3056945800781 600.8297119140625 430.17236328125 C 601.7363891601562 432.0390319824219 603.0497436523438 433.59234619140625 604.7697143554688 434.83233642578125 C 606.4963989257812 436.0790100097656 608.7930908203125 436.7023620605469 611.6597290039062 436.7023620605469 C 616.0597534179688 436.7023620605469 620.3397216796875 435.5290222167969 624.499755859375 433.1823425292969 C 628.6597290039062 430.84234619140625 632.3663940429688 427.7823486328125 635.6197509765625 424.0023498535156 C 638.873046875 420.22235107421875 641.4564208984375 415.93902587890625 643.3697509765625 411.15234375 C 645.2830810546875 406.3723449707031 646.23974609375 401.5423583984375 646.23974609375 396.662353515625 C 646.23974609375 394.7490234375 646.1197509765625 392.76568603515625 645.8797607421875 390.71234130859375 C 645.6397094726562 388.65234375 645.06640625 386.7623596191406 644.1597290039062 385.0423583984375 C 643.2530517578125 383.3223571777344 641.9364013671875 381.912353515625 640.209716796875 380.8123474121094 C 638.48974609375 379.71234130859375 636.1463623046875 379.162353515625 633.1797485351562 379.162353515625 M 640.6497192382812 353.90234375 C 644.2830810546875 353.90234375 648.1797485351562 354.3823547363281 652.3397216796875 355.34234619140625 C 656.499755859375 356.2956848144531 660.3497314453125 357.92236328125 663.8897094726562 360.22235107421875 C 667.4297485351562 362.51568603515625 670.373046875 365.5523681640625 672.7197265625 369.33233642578125 C 675.0597534179688 373.11236572265625 676.229736328125 377.77569580078125 676.229736328125 383.3223571777344 C 676.229736328125 386.18902587890625 675.8463745117188 389.4656982421875 675.0797119140625 393.15234375 C 674.3197021484375 396.83233642578125 673.173095703125 400.6823425292969 671.6397094726562 404.7023620605469 C 672.5930786132812 405.8490295410156 673.6930541992188 406.662353515625 674.939697265625 407.142333984375 C 676.1864013671875 407.6156921386719 677.5263671875 407.85235595703125 678.959716796875 407.85235595703125 C 680.9663696289062 407.85235595703125 683.189697265625 407.2790222167969 685.6297607421875 406.1323547363281 C 688.0697021484375 404.9856872558594 690.5797119140625 403.5023498535156 693.1597290039062 401.6823425292969 C 695.7463989257812 399.8690185546875 698.3297119140625 397.8123474121094 700.9097290039062 395.5123596191406 C 703.4963989257812 393.2190246582031 705.9364013671875 390.9256896972656 708.229736328125 388.6323547363281 C 710.5230712890625 386.33233642578125 712.60302734375 384.15570068359375 714.4697265625 382.10235595703125 C 716.33642578125 380.0423583984375 717.8897094726562 378.2956848144531 719.1297607421875 376.86236572265625 C 719.8030395507812 376.1956787109375 720.6163940429688 375.86236572265625 721.5697021484375 375.86236572265625 C 722.9097290039062 375.86236572265625 724.1063842773438 376.5556945800781 725.1597290039062 377.9423522949219 C 726.2130737304688 379.3290100097656 726.73974609375 381.26568603515625 726.73974609375 383.7523498535156 C 726.73974609375 386.239013671875 725.999755859375 389.1090087890625 724.5197143554688 392.36236572265625 C 723.0330810546875 395.6156921386719 720.2830810546875 399.0123596191406 716.2697143554688 402.5523681640625 C 713.9697265625 405.03900146484375 711.33642578125 407.90570068359375 708.3697509765625 411.15234375 C 705.403076171875 414.40570068359375 702.2463989257812 417.4690246582031 698.8997192382812 420.34234619140625 C 695.5530395507812 423.2090148925781 692.0630493164062 425.6490173339844 688.4297485351562 427.662353515625 C 684.79638671875 429.66900634765625 681.1597290039062 430.67236328125 677.5197143554688 430.67236328125 C 675.0330810546875 430.67236328125 672.6197509765625 430.2890319824219 670.2797241210938 429.5223388671875 C 667.9330444335938 428.75567626953125 665.5630493164062 427.5123596191406 663.1697387695312 425.7923583984375 C 659.729736328125 431.15234375 655.8097534179688 436.0323486328125 651.4097290039062 440.4323425292969 C 647.0097045898438 444.83233642578125 642.1063842773438 448.6090087890625 636.69970703125 451.7623596191406 C 631.2930908203125 454.92236328125 625.4564208984375 457.38568115234375 619.189697265625 459.15234375 C 612.9230346679688 460.9256896972656 606.2530517578125 461.8123474121094 599.1797485351562 461.8123474121094 C 596.499755859375 461.8123474121094 593.3897094726562 461.2856750488281 589.8497314453125 460.23236083984375 C 586.3097534179688 459.17901611328125 582.9364013671875 457.4323425292969 579.729736328125 454.9923400878906 C 576.5297241210938 452.5523376464844 573.8297119140625 449.3723449707031 571.6296997070312 445.4523620605469 C 569.4297485351562 441.5323486328125 568.3297119140625 436.7490234375 568.3297119140625 431.10235595703125 C 568.3297119140625 427.27569580078125 568.94970703125 422.6856689453125 570.1897583007812 417.33233642578125 C 571.4364013671875 411.97235107421875 573.326416015625 406.4456787109375 575.8597412109375 400.7523498535156 C 578.39306640625 395.05902099609375 581.5963745117188 389.4156799316406 585.4697265625 383.8223571777344 C 589.3430786132812 378.22900390625 593.959716796875 373.2056884765625 599.3197021484375 368.7523498535156 C 604.6797485351562 364.3056945800781 610.8030395507812 360.7190246582031 617.689697265625 357.9923400878906 C 624.576416015625 355.26568603515625 632.229736328125 353.90234375 640.6497192382812 353.90234375 ZM 724.01025390625 416.7523498535156 C 722.9569091796875 418.9523620605469 721.9302978515625 421.5123596191406 720.9302978515625 424.4323425292969 C 719.923583984375 427.3456726074219 719.4202880859375 429.9523620605469 719.4202880859375 432.2523498535156 C 719.4202880859375 433.6856689453125 719.7069091796875 434.83233642578125 720.2802734375 435.6923522949219 C 720.8535766601562 436.5523376464844 721.95361328125 436.98236083984375 723.5802612304688 436.98236083984375 C 725.5936279296875 436.98236083984375 728.10693359375 436.38568115234375 731.1202392578125 435.1923522949219 C 734.1336059570312 433.9990234375 737.3836059570312 432.41900634765625 740.8702392578125 430.4523620605469 C 744.3635864257812 428.4923400878906 748.000244140625 426.2456970214844 751.7802734375 423.71234130859375 C 755.560302734375 421.17901611328125 759.3135986328125 418.54901123046875 763.040283203125 415.8223571777344 C 766.7736206054688 413.0956726074219 770.3369140625 410.3690185546875 773.7302856445312 407.642333984375 C 777.1302490234375 404.9156799316406 780.1669311523438 402.40570068359375 782.8402709960938 400.11236572265625 C 783.60693359375 399.43902587890625 784.5169677734375 398.9590148925781 785.5702514648438 398.67236328125 C 786.6235961914062 398.38568115234375 787.5336303710938 398.2423400878906 788.30029296875 398.2423400878906 C 790.213623046875 398.2423400878906 791.790283203125 398.912353515625 793.0302734375 400.2523498535156 C 794.2769165039062 401.59234619140625 794.9002685546875 403.36236572265625 794.9002685546875 405.5623474121094 C 794.9002685546875 407.56903076171875 794.2302856445312 409.815673828125 792.8902587890625 412.3023681640625 C 791.55029296875 414.78900146484375 789.2069091796875 417.22900390625 785.8602905273438 419.6223449707031 C 779.7335815429688 425.2690124511719 773.5635986328125 430.62567138671875 767.3502807617188 435.6923522949219 C 761.1302490234375 440.76568603515625 754.9369506835938 445.239013671875 748.770263671875 449.11236572265625 C 742.596923828125 452.9856872558594 736.4736328125 456.06903076171875 730.4002685546875 458.36236572265625 C 724.3269653320312 460.662353515625 718.4202880859375 461.8123474121094 712.6802978515625 461.8123474121094 C 708.7536010742188 461.8123474121094 705.4769287109375 461.2856750488281 702.8502807617188 460.23236083984375 C 700.2169189453125 459.17901611328125 698.1102905273438 457.7423400878906 696.5302734375 455.92236328125 C 694.9569091796875 454.1090087890625 693.8336181640625 451.9590148925781 693.1602783203125 449.47235107421875 C 692.4935913085938 446.9856872558594 692.1602783203125 444.3556823730469 692.1602783203125 441.58233642578125 C 692.1602783203125 436.8890075683594 692.8535766601562 432.0790100097656 694.2402954101562 427.15234375 C 695.626953125 422.2256774902344 697.2769165039062 417.7056884765625 699.1902465820312 413.59234619140625 C 702.5369262695312 406.1323547363281 705.93359375 398.7190246582031 709.3802490234375 391.35235595703125 C 712.8202514648438 383.9856872558594 715.9769287109375 377.2423400878906 718.8502807617188 371.1223449707031 L 762.3302612304688 278.5723571777344 C 764.05029296875 274.8390197753906 766.366943359375 272.2090148925781 769.2802734375 270.682373046875 C 772.2002563476562 269.1490173339844 775.1436157226562 268.3823547363281 778.1102905273438 268.3823547363281 C 781.076904296875 268.3823547363281 783.7802734375 269.1956787109375 786.2202758789062 270.8223571777344 C 788.6602783203125 272.44903564453125 789.8802490234375 275.07904052734375 789.8802490234375 278.71234130859375 C 789.8802490234375 280.43902587890625 789.4736328125 282.259033203125 788.6602783203125 284.17236328125 C 787.846923828125 286.07904052734375 786.8169555664062 288.13568115234375 785.5702514648438 290.34234619140625 C 783.1769409179688 294.835693359375 780.3302612304688 300.335693359375 777.0302734375 306.84234619140625 C 773.7302856445312 313.34234619140625 770.1902465820312 320.41900634765625 766.4102783203125 328.0723571777344 C 762.636962890625 335.7256774902344 758.7636108398438 343.68902587890625 754.790283203125 351.96234130859375 C 750.8236083984375 360.2423400878906 746.9502563476562 368.3023681640625 743.1702880859375 376.142333984375 C 739.3902587890625 383.989013671875 735.8502807617188 391.42901611328125 732.55029296875 398.46234130859375 C 729.250244140625 405.489013671875 726.4036254882812 411.585693359375 724.01025390625 416.7523498535156 ZM 928.483642578125 423.9323425292969 C 924.2769775390625 428.71234130859375 919.376953125 433.37567138671875 913.7836303710938 437.92236328125 C 908.1836547851562 442.46234130859375 902.4202880859375 446.5023498535156 896.49365234375 450.0423583984375 C 890.560302734375 453.58233642578125 884.7236328125 456.42901611328125 878.983642578125 458.58233642578125 C 873.24365234375 460.7356872558594 868.0769653320312 461.8123474121094 863.483642578125 461.8123474121094 C 858.89697265625 461.8123474121094 855.1669921875 460.5190124511719 852.2936401367188 457.9323425292969 C 849.427001953125 455.35235595703125 847.99365234375 450.9523620605469 847.99365234375 444.73236083984375 C 847.99365234375 440.33233642578125 848.7569580078125 435.2156982421875 850.2836303710938 429.3823547363281 C 847.7969970703125 433.1090087890625 844.6903076171875 436.88568115234375 840.963623046875 440.71234130859375 C 837.2302856445312 444.5390319824219 832.9703369140625 448.0323486328125 828.1836547851562 451.1923522949219 C 823.4036254882812 454.3456726074219 818.0469970703125 456.9056701660156 812.1136474609375 458.8723449707031 C 806.1869506835938 460.83233642578125 799.7302856445312 461.8123474121094 792.74365234375 461.8123474121094 C 789.59033203125 461.8123474121094 786.5536499023438 461.4756774902344 783.6336669921875 460.8023376464844 C 780.713623046875 460.13568115234375 778.1536254882812 458.989013671875 775.95361328125 457.36236572265625 C 773.753662109375 455.7356872558594 771.983642578125 453.55902099609375 770.6436157226562 450.83233642578125 C 769.310302734375 448.1056823730469 768.6436157226562 444.6856689453125 768.6436157226562 440.5723571777344 C 768.6436157226562 440.47900390625 768.8336181640625 439.0190124511719 769.213623046875 436.1923522949219 C 769.5936279296875 433.3723449707031 770.8136596679688 428.9256896972656 772.8736572265625 422.85235595703125 C 774.927001953125 416.7790222167969 778.1069946289062 408.912353515625 782.4136352539062 399.2523498535156 C 786.7202758789062 389.585693359375 792.7936401367188 377.8656921386719 800.6336669921875 364.09234619140625 C 802.64697265625 360.4590148925781 804.9669799804688 357.85235595703125 807.5936279296875 356.2723388671875 C 810.2269897460938 354.6923522949219 813.0736083984375 353.90234375 816.1336669921875 353.90234375 C 817.4736328125 353.90234375 818.8602905273438 354.06903076171875 820.2936401367188 354.40234375 C 821.7269897460938 354.7423400878906 823.0669555664062 355.2690124511719 824.3136596679688 355.98236083984375 C 825.560302734375 356.7023620605469 826.5636596679688 357.61236572265625 827.3236083984375 358.71234130859375 C 828.09033203125 359.8123474121094 828.4736328125 361.0790100097656 828.4736328125 362.5123596191406 C 828.4736328125 363.47235107421875 828.330322265625 364.3823547363281 828.0436401367188 365.2423400878906 C 827.5636596679688 366.8690185546875 826.5369873046875 368.99566650390625 824.963623046875 371.6223449707031 C 823.3836669921875 374.25567626953125 821.540283203125 377.2690124511719 819.4336547851562 380.662353515625 C 817.3269653320312 384.0623474121094 815.1036376953125 387.72235107421875 812.7636108398438 391.642333984375 C 810.4169921875 395.5623474121094 808.2402954101562 399.6290283203125 806.233642578125 403.84234619140625 C 804.2269897460938 408.04901123046875 802.503662109375 412.3290100097656 801.0636596679688 416.6823425292969 C 799.6303100585938 421.0356750488281 798.8203125 425.2690124511719 798.6336669921875 429.3823547363281 C 798.6336669921875 431.10235595703125 799.1102905273438 432.67901611328125 800.0636596679688 434.11236572265625 C 801.0169677734375 435.5523376464844 802.5969848632812 436.2723388671875 804.8036499023438 436.2723388671875 C 811.0169677734375 436.2723388671875 816.9469604492188 434.54901123046875 822.5936279296875 431.10235595703125 C 828.233642578125 427.6556701660156 833.4469604492188 423.37567138671875 838.233642578125 418.2623596191406 C 843.013671875 413.142333984375 847.34033203125 407.642333984375 851.213623046875 401.7623596191406 C 855.0936279296875 395.87567138671875 858.3236083984375 390.4923400878906 860.9036254882812 385.61236572265625 C 862.7236328125 382.3590087890625 864.3269653320312 378.8690185546875 865.713623046875 375.142333984375 C 867.1002807617188 371.4090270996094 868.6069946289062 367.9656982421875 870.233642578125 364.8123474121094 C 871.8602905273438 361.65234375 873.7236328125 359.0223388671875 875.8236083984375 356.92236328125 C 877.9302978515625 354.815673828125 880.5636596679688 353.7623596191406 883.7236328125 353.7623596191406 C 887.1636352539062 353.7623596191406 889.886962890625 354.86236572265625 891.8936157226562 357.0623474121094 C 893.906982421875 359.2623596191406 894.9136352539062 361.892333984375 894.9136352539062 364.9523620605469 C 894.9136352539062 366.67236328125 894.2669677734375 369.03900146484375 892.9736328125 372.0523681640625 C 891.6802978515625 375.065673828125 890.0536499023438 378.509033203125 888.0936279296875 382.3823547363281 C 886.1336669921875 386.2623596191406 884.0069580078125 390.40234375 881.713623046875 394.8023681640625 C 879.4136352539062 399.2023620605469 877.2836303710938 403.67236328125 875.3236083984375 408.21234130859375 C 873.3636474609375 412.759033203125 871.7369384765625 417.2090148925781 870.443603515625 421.5623474121094 C 869.156982421875 425.9156799316406 868.513671875 429.9556884765625 868.513671875 433.6823425292969 C 868.513671875 437.1290283203125 870.616943359375 438.85235595703125 874.8236083984375 438.85235595703125 C 877.790283203125 438.85235595703125 881.4736328125 437.9923400878906 885.8736572265625 436.2723388671875 C 890.2736206054688 434.5456848144531 894.886962890625 432.1290283203125 899.713623046875 429.0223388671875 C 904.5469970703125 425.9156799316406 909.3803100585938 422.25567626953125 914.213623046875 418.0423583984375 C 919.040283203125 413.835693359375 923.3203125 409.2923583984375 927.0536499023438 404.412353515625 L 928.483642578125 423.9323425292969 ZM 951.593505859375 378.4423522949219 C 948.053466796875 385.3290100097656 944.7034912109375 392.04901123046875 941.54345703125 398.60235595703125 C 938.39013671875 405.15570068359375 935.4268188476562 411.2056884765625 932.6535034179688 416.7523498535156 C 931.5001831054688 419.0456848144531 930.3734741210938 421.6990051269531 929.2734985351562 424.71234130859375 C 928.1734619140625 427.7256774902344 927.6234741210938 430.3823547363281 927.6234741210938 432.6823425292969 C 927.6234741210938 434.0223388671875 927.9368286132812 435.07568359375 928.5634765625 435.84234619140625 C 929.1834716796875 436.60235595703125 930.2101440429688 436.98236083984375 931.6434936523438 436.98236083984375 C 933.650146484375 436.98236083984375 936.1868286132812 436.38568115234375 939.2534790039062 435.1923522949219 C 942.3134765625 433.9990234375 945.6134643554688 432.41900634765625 949.1535034179688 430.4523620605469 C 952.6934814453125 428.4923400878906 956.4234619140625 426.2456970214844 960.343505859375 423.71234130859375 C 964.2634887695312 421.17901611328125 968.1134643554688 418.54901123046875 971.8934936523438 415.8223571777344 C 975.6734619140625 413.0956726074219 979.2835083007812 410.3690185546875 982.7235107421875 407.642333984375 C 986.170166015625 404.9156799316406 989.2335205078125 402.40570068359375 991.9135131835938 400.11236572265625 C 993.440185546875 399.05902099609375 994.8734741210938 398.5323486328125 996.2135009765625 398.5323486328125 C 997.8401489257812 398.5323486328125 999.18017578125 399.2490234375 1000.2335205078125 400.6823425292969 C 1001.2868041992188 402.1156921386719 1001.8134765625 403.9323425292969 1001.8134765625 406.1323547363281 C 1001.8134765625 408.33233642578125 1001.2868041992188 410.58233642578125 1000.2335205078125 412.8823547363281 C 999.18017578125 415.1756896972656 997.266845703125 417.42236328125 994.4934692382812 419.6223449707031 C 988.2734985351562 425.2690124511719 981.9835205078125 430.62567138671875 975.6234741210938 435.6923522949219 C 969.2634887695312 440.76568603515625 962.9501342773438 445.239013671875 956.6834716796875 449.11236572265625 C 950.4168090820312 452.9856872558594 944.2235107421875 456.06903076171875 938.103515625 458.36236572265625 C 931.9835205078125 460.662353515625 926.053466796875 461.8123474121094 920.3134765625 461.8123474121094 C 916.48681640625 461.8123474121094 913.2801513671875 461.30902099609375 910.6934814453125 460.3023376464844 C 908.1134643554688 459.2956848144531 906.0335083007812 457.9090270996094 904.4534912109375 456.1423645019531 C 902.8734741210938 454.3690185546875 901.7501831054688 452.3123474121094 901.08349609375 449.97235107421875 C 900.41015625 447.62567138671875 900.073486328125 445.1156921386719 900.073486328125 442.4423522949219 C 900.073486328125 437.6556701660156 900.8868408203125 432.67901611328125 902.5134887695312 427.5123596191406 C 904.14013671875 422.3456726074219 905.9601440429688 417.7056884765625 907.9735107421875 413.59234619140625 C 910.8401489257812 407.6656799316406 913.6834716796875 401.7823486328125 916.5034790039062 395.9423522949219 C 919.3301391601562 390.1090087890625 922.0801391601562 384.51568603515625 924.7534790039062 379.162353515625 L 918.58349609375 379.162353515625 C 913.2301635742188 379.162353515625 909.5501708984375 378.29901123046875 907.5435180664062 376.5723571777344 C 905.5301513671875 374.85235595703125 904.5234985351562 372.892333984375 904.5234985351562 370.6923522949219 C 904.5234985351562 369.739013671875 904.83349609375 368.565673828125 905.4534912109375 367.17236328125 C 906.0801391601562 365.7856750488281 906.9901733398438 364.49566650390625 908.1834716796875 363.3023681640625 C 909.3768310546875 362.1090087890625 910.8367919921875 361.08233642578125 912.5634765625 360.22235107421875 C 914.2835083007812 359.3556823730469 916.2434692382812 358.92236328125 918.4434814453125 358.92236328125 L 933.9434814453125 358.92236328125 L 964.2135009765625 298.8023681640625 C 966.1268310546875 295.16900634765625 968.496826171875 292.5623474121094 971.323486328125 290.98236083984375 C 974.1434936523438 289.40234375 977.08349609375 288.61236572265625 980.1434936523438 288.61236572265625 C 983.016845703125 288.61236572265625 985.6468505859375 289.3790283203125 988.0335083007812 290.912353515625 C 990.4268188476562 292.4456787109375 991.6234741210938 294.97900390625 991.6234741210938 298.5123291015625 C 991.6234741210938 300.33233642578125 991.216796875 302.1756896972656 990.4035034179688 304.0423583984375 C 989.5901489257812 305.90899658203125 988.5134887695312 308.085693359375 987.1734619140625 310.5723571777344 C 986.3134765625 312.19903564453125 985.2634887695312 314.13568115234375 984.0234985351562 316.3823547363281 C 982.77685546875 318.6290283203125 981.4601440429688 321.0190124511719 980.073486328125 323.5523681640625 C 978.6868286132812 326.09234619140625 977.2534790039062 328.7490234375 975.7734985351562 331.5223388671875 C 974.2868041992188 334.2956848144531 972.8268432617188 336.97235107421875 971.3934936523438 339.5523681640625 C 968.14013671875 345.67901611328125 964.6968383789062 352.13568115234375 961.0634765625 358.92236328125 L 1007.843505859375 358.92236328125 C 1010.1368408203125 358.92236328125 1012.2401733398438 359.0423583984375 1014.1535034179688 359.2823486328125 C 1016.0668334960938 359.5223388671875 1017.716796875 360.0023498535156 1019.103515625 360.72235107421875 C 1020.4901733398438 361.4356689453125 1021.5668334960938 362.4156799316406 1022.33349609375 363.662353515625 C 1023.1001586914062 364.90234375 1023.4835205078125 366.57568359375 1023.4835205078125 368.6823425292969 C 1023.4835205078125 369.7356872558594 1023.3134765625 370.78900146484375 1022.9735107421875 371.84234619140625 C 1022.64013671875 372.89569091796875 1022.0201416015625 373.85235595703125 1021.1134643554688 374.71234130859375 C 1020.2068481445312 375.5723571777344 1018.9635009765625 376.28900146484375 1017.3834838867188 376.86236572265625 C 1015.803466796875 377.4356689453125 1013.7701416015625 377.81903076171875 1011.2835083007812 378.0123596191406 L 951.593505859375 378.4423522949219 ZM 1019.1768798828125 334.10235595703125 C 1019.1768798828125 331.90234375 1019.58349609375 329.6290283203125 1020.3968505859375 327.2823486328125 C 1021.210205078125 324.9423522949219 1022.43017578125 322.815673828125 1024.056884765625 320.90234375 C 1025.6834716796875 318.989013671875 1027.716796875 317.40899658203125 1030.1568603515625 316.162353515625 C 1032.5902099609375 314.92236328125 1035.4835205078125 314.3023681640625 1038.8369140625 314.3023681640625 C 1044.383544921875 314.3023681640625 1048.2568359375 315.3790283203125 1050.4569091796875 317.5323486328125 C 1052.6568603515625 319.6856689453125 1053.7568359375 322.38568115234375 1053.7568359375 325.6323547363281 C 1053.7568359375 327.45233154296875 1053.3968505859375 329.46234130859375 1052.6768798828125 331.662353515625 C 1051.9635009765625 333.86236572265625 1050.8868408203125 335.89569091796875 1049.4468994140625 337.7623596191406 C 1048.0135498046875 339.6290283203125 1046.150146484375 341.1823425292969 1043.8568115234375 342.42236328125 C 1041.556884765625 343.66900634765625 1038.8302001953125 344.2923583984375 1035.6768798828125 344.2923583984375 C 1029.7435302734375 344.2923583984375 1025.58349609375 343.3590087890625 1023.1968383789062 341.4923400878906 C 1020.8035278320312 339.62567138671875 1019.4635009765625 337.162353515625 1019.1768798828125 334.10235595703125 M 1003.3868408203125 366.392333984375 C 1005.0135498046875 363.71234130859375 1006.8801879882812 361.79901123046875 1008.9868774414062 360.65234375 C 1011.093505859375 359.4990234375 1013.246826171875 358.92236328125 1015.4468383789062 358.92236328125 C 1019.0802001953125 358.92236328125 1022.2135009765625 360.095703125 1024.8468017578125 362.4423522949219 C 1027.4735107421875 364.78900146484375 1028.786865234375 367.7790222167969 1028.786865234375 371.412353515625 C 1028.6934814453125 372.2723388671875 1028.573486328125 373.1323547363281 1028.4268798828125 373.9923400878906 C 1028.286865234375 374.85235595703125 1027.976806640625 375.71234130859375 1027.496826171875 376.5723571777344 C 1026.1568603515625 379.05902099609375 1025.056884765625 381.1656799316406 1024.1968994140625 382.892333984375 C 1023.3368530273438 384.61236572265625 1022.546875 386.21234130859375 1021.8268432617188 387.6923522949219 C 1021.113525390625 389.17901611328125 1020.420166015625 390.6390075683594 1019.746826171875 392.0723571777344 C 1019.0802001953125 393.50567626953125 1018.266845703125 395.22900390625 1017.306884765625 397.2423400878906 C 1016.1602172851562 399.6290283203125 1014.8701782226562 402.2356872558594 1013.4368286132812 405.0623474121094 C 1012.0035400390625 407.8823547363281 1010.6401977539062 410.77569580078125 1009.3468627929688 413.7423400878906 C 1008.0535278320312 416.7090148925781 1006.9534912109375 419.62567138671875 1006.046875 422.4923400878906 C 1005.1401977539062 425.3656921386719 1004.6868286132812 427.9956970214844 1004.6868286132812 430.3823547363281 C 1004.6868286132812 432.9690246582031 1005.3302001953125 434.66900634765625 1006.6168823242188 435.48236083984375 C 1007.9102172851562 436.2956848144531 1009.7535400390625 436.7023620605469 1012.1468505859375 436.7023620605469 C 1014.8201904296875 436.7023620605469 1017.6168823242188 436.12567138671875 1020.536865234375 434.97235107421875 C 1023.4568481445312 433.82568359375 1026.400146484375 432.3456726074219 1029.3668212890625 430.5323486328125 C 1032.326904296875 428.71234130859375 1035.2435302734375 426.6290283203125 1038.1168212890625 424.2823486328125 C 1040.9835205078125 421.9423522949219 1043.6868896484375 419.57568359375 1046.226806640625 417.1823425292969 C 1048.7601318359375 414.78900146484375 1051.103515625 412.4923400878906 1053.2568359375 410.2923583984375 C 1055.41015625 408.09234619140625 1057.2034912109375 406.1323547363281 1058.6368408203125 404.412353515625 C 1060.5501708984375 402.59234619140625 1062.4635009765625 401.6823425292969 1064.3768310546875 401.6823425292969 C 1066.0968017578125 401.6823425292969 1067.5068359375 402.4490051269531 1068.6068115234375 403.98236083984375 C 1069.7069091796875 405.51568603515625 1070.2568359375 407.4756774902344 1070.2568359375 409.86236572265625 C 1070.2568359375 412.0623474121094 1069.7069091796875 414.40570068359375 1068.6068115234375 416.892333984375 C 1067.5068359375 419.38568115234375 1065.7135009765625 421.73236083984375 1063.226806640625 423.9323425292969 C 1058.3468017578125 428.9056701660156 1053.37353515625 433.662353515625 1048.306884765625 438.2023620605469 C 1043.2335205078125 442.7490234375 1038.0435791015625 446.7690124511719 1032.73681640625 450.2623596191406 C 1027.423583984375 453.7490234375 1022.0902099609375 456.5456848144531 1016.7368774414062 458.65234375 C 1011.3768310546875 460.7590026855469 1005.97021484375 461.8123474121094 1000.516845703125 461.8123474121094 C 992.7702026367188 461.8123474121094 986.6735229492188 459.82568359375 982.2268676757812 455.85235595703125 C 977.7802124023438 451.88568115234375 975.556884765625 445.6923522949219 975.556884765625 437.2723388671875 C 975.556884765625 432.8723449707031 976.1768798828125 428.56903076171875 977.4168701171875 424.36236572265625 C 978.6635131835938 420.1490173339844 980.1468505859375 416.05902099609375 981.8668823242188 412.09234619140625 C 983.5868530273438 408.1190185546875 985.4035034179688 404.2923583984375 987.3168334960938 400.61236572265625 C 989.2301635742188 396.9256896972656 990.8568725585938 393.4090270996094 992.1968383789062 390.0623474121094 C 992.6768798828125 388.8223571777344 993.5135498046875 386.9090270996094 994.7068481445312 384.3223571777344 C 995.9068603515625 381.7423400878906 997.1768798828125 379.11236572265625 998.516845703125 376.4323425292969 C 1000.0435180664062 373.2723388671875 1001.6668701171875 369.9256896972656 1003.3868408203125 366.392333984375 ZM 1108.422607421875 379.162353515625 C 1103.92919921875 379.162353515625 1099.6025390625 380.2856750488281 1095.442626953125 382.5323486328125 C 1091.2825927734375 384.7790222167969 1087.5992431640625 387.7423400878906 1084.392578125 391.42236328125 C 1081.1859130859375 395.1090087890625 1078.6259765625 399.2723388671875 1076.712646484375 403.912353515625 C 1074.79931640625 408.5523681640625 1073.842529296875 413.3123474121094 1073.842529296875 418.1923522949219 C 1073.842529296875 420.00567626953125 1073.9859619140625 421.989013671875 1074.2725830078125 424.142333984375 C 1074.5592041015625 426.2956848144531 1075.1593017578125 428.3056945800781 1076.0726318359375 430.17236328125 C 1076.979248046875 432.0390319824219 1078.2926025390625 433.59234619140625 1080.0125732421875 434.83233642578125 C 1081.7392578125 436.0790100097656 1084.035888671875 436.7023620605469 1086.902587890625 436.7023620605469 C 1091.3026123046875 436.7023620605469 1095.5826416015625 435.5290222167969 1099.7425537109375 433.1823425292969 C 1103.902587890625 430.84234619140625 1107.6092529296875 427.7823486328125 1110.862548828125 424.0023498535156 C 1114.115966796875 420.22235107421875 1116.69921875 415.93902587890625 1118.612548828125 411.15234375 C 1120.52587890625 406.3723449707031 1121.4825439453125 401.5423583984375 1121.4825439453125 396.662353515625 C 1121.4825439453125 394.7490234375 1121.362548828125 392.76568603515625 1121.12255859375 390.71234130859375 C 1120.882568359375 388.65234375 1120.3092041015625 386.7623596191406 1119.402587890625 385.0423583984375 C 1118.4959716796875 383.3223571777344 1117.17919921875 381.912353515625 1115.45263671875 380.8123474121094 C 1113.7325439453125 379.71234130859375 1111.3892822265625 379.162353515625 1108.422607421875 379.162353515625 M 1115.892578125 353.90234375 C 1119.52587890625 353.90234375 1123.422607421875 354.3823547363281 1127.5826416015625 355.34234619140625 C 1131.7425537109375 356.2956848144531 1135.592529296875 357.92236328125 1139.132568359375 360.22235107421875 C 1142.672607421875 362.51568603515625 1145.615966796875 365.5523681640625 1147.962646484375 369.33233642578125 C 1150.3026123046875 373.11236572265625 1151.4725341796875 377.77569580078125 1151.4725341796875 383.3223571777344 C 1151.4725341796875 386.18902587890625 1151.0892333984375 389.4656982421875 1150.3226318359375 393.15234375 C 1149.5626220703125 396.83233642578125 1148.4158935546875 400.6823425292969 1146.882568359375 404.7023620605469 C 1147.8359375 405.8490295410156 1148.9359130859375 406.662353515625 1150.1826171875 407.142333984375 C 1151.42919921875 407.6156921386719 1152.769287109375 407.85235595703125 1154.20263671875 407.85235595703125 C 1156.209228515625 407.85235595703125 1158.4326171875 407.2790222167969 1160.87255859375 406.1323547363281 C 1163.3126220703125 404.9856872558594 1165.8226318359375 403.5023498535156 1168.402587890625 401.6823425292969 C 1170.9892578125 399.8690185546875 1173.5726318359375 397.8123474121094 1176.152587890625 395.5123596191406 C 1178.7392578125 393.2190246582031 1181.17919921875 390.9256896972656 1183.47265625 388.6323547363281 C 1185.765869140625 386.33233642578125 1187.845947265625 384.15570068359375 1189.712646484375 382.10235595703125 C 1191.5792236328125 380.0423583984375 1193.132568359375 378.2956848144531 1194.37255859375 376.86236572265625 C 1195.0458984375 376.1956787109375 1195.8592529296875 375.86236572265625 1196.8126220703125 375.86236572265625 C 1198.152587890625 375.86236572265625 1199.3492431640625 376.5556945800781 1200.402587890625 377.9423522949219 C 1201.4559326171875 379.3290100097656 1201.9825439453125 381.26568603515625 1201.9825439453125 383.7523498535156 C 1201.9825439453125 386.239013671875 1201.2425537109375 389.1090087890625 1199.7625732421875 392.36236572265625 C 1198.27587890625 395.6156921386719 1195.52587890625 399.0123596191406 1191.5125732421875 402.5523681640625 C 1189.212646484375 405.03900146484375 1186.5792236328125 407.90570068359375 1183.612548828125 411.15234375 C 1180.6458740234375 414.40570068359375 1177.4892578125 417.4690246582031 1174.142578125 420.34234619140625 C 1170.7958984375 423.2090148925781 1167.305908203125 425.6490173339844 1163.672607421875 427.662353515625 C 1160.039306640625 429.66900634765625 1156.402587890625 430.67236328125 1152.7625732421875 430.67236328125 C 1150.27587890625 430.67236328125 1147.862548828125 430.2890319824219 1145.5225830078125 429.5223388671875 C 1143.1759033203125 428.75567626953125 1140.805908203125 427.5123596191406 1138.41259765625 425.7923583984375 C 1134.9725341796875 431.15234375 1131.0526123046875 436.0323486328125 1126.652587890625 440.4323425292969 C 1122.2525634765625 444.83233642578125 1117.3492431640625 448.6090087890625 1111.942626953125 451.7623596191406 C 1106.535888671875 454.92236328125 1100.69921875 457.38568115234375 1094.4326171875 459.15234375 C 1088.1658935546875 460.9256896972656 1081.4959716796875 461.8123474121094 1074.422607421875 461.8123474121094 C 1071.7425537109375 461.8123474121094 1068.632568359375 461.2856750488281 1065.092529296875 460.23236083984375 C 1061.5526123046875 459.17901611328125 1058.17919921875 457.4323425292969 1054.9725341796875 454.9923400878906 C 1051.7725830078125 452.5523376464844 1049.0726318359375 449.3723449707031 1046.87255859375 445.4523620605469 C 1044.672607421875 441.5323486328125 1043.5726318359375 436.7490234375 1043.5726318359375 431.10235595703125 C 1043.5726318359375 427.27569580078125 1044.192626953125 422.6856689453125 1045.4326171875 417.33233642578125 C 1046.67919921875 411.97235107421875 1048.5692138671875 406.4456787109375 1051.1025390625 400.7523498535156 C 1053.6358642578125 395.05902099609375 1056.8392333984375 389.4156799316406 1060.712646484375 383.8223571777344 C 1064.5859375 378.22900390625 1069.20263671875 373.2056884765625 1074.5626220703125 368.7523498535156 C 1079.922607421875 364.3056945800781 1086.0458984375 360.7190246582031 1092.9326171875 357.9923400878906 C 1099.8192138671875 355.26568603515625 1107.4725341796875 353.90234375 1115.892578125 353.90234375 ZM 1198.11328125 371.1223449707031 C 1200.0198974609375 367.009033203125 1202.409912109375 363.94903564453125 1205.283203125 361.9423522949219 C 1208.14990234375 359.92901611328125 1210.9732666015625 358.92236328125 1213.7532958984375 358.92236328125 C 1216.046630859375 358.92236328125 1218.103271484375 359.7623596191406 1219.9232177734375 361.4423522949219 C 1221.736572265625 363.1156921386719 1222.643310546875 365.57568359375 1222.643310546875 368.8223571777344 C 1222.643310546875 370.06903076171875 1222.4998779296875 371.4090270996094 1222.2132568359375 372.84234619140625 C 1221.9266357421875 374.2823486328125 1221.39990234375 375.8123474121094 1220.63330078125 377.4323425292969 C 1222.7398681640625 374.759033203125 1225.7532958984375 372.009033203125 1229.6732177734375 369.1823425292969 C 1233.5999755859375 366.36236572265625 1237.929931640625 363.8290100097656 1242.6632080078125 361.58233642578125 C 1247.3966064453125 359.335693359375 1252.276611328125 357.4923400878906 1257.30322265625 356.0523681640625 C 1262.3232421875 354.6190185546875 1267.0799560546875 353.90234375 1271.5732421875 353.90234375 C 1276.6466064453125 353.90234375 1280.8798828125 355.1223449707031 1284.273193359375 357.5623474121094 C 1287.6732177734375 360.0023498535156 1289.373291015625 364.1390075683594 1289.373291015625 369.97235107421875 C 1289.373291015625 373.41900634765625 1288.8465576171875 377.00567626953125 1287.793212890625 380.73236083984375 C 1286.7398681640625 384.4656982421875 1285.3765869140625 388.19903564453125 1283.7032470703125 391.9323425292969 C 1282.0299072265625 395.6590270996094 1280.1632080078125 399.315673828125 1278.103271484375 402.90234375 C 1276.0499267578125 406.4956970214844 1274.0166015625 409.8690185546875 1272.0032958984375 413.0223388671875 C 1269.99658203125 416.1823425292969 1268.1566162109375 419.07568359375 1266.4832763671875 421.7023620605469 C 1264.8099365234375 424.335693359375 1263.4932861328125 426.5123596191406 1262.533203125 428.23236083984375 C 1261.293212890625 429.76568603515625 1260.6732177734375 431.5356750488281 1260.6732177734375 433.5423583984375 C 1260.6732177734375 434.30902099609375 1260.909912109375 434.97900390625 1261.38330078125 435.5523376464844 C 1261.86328125 436.12567138671875 1262.6298828125 436.412353515625 1263.6832275390625 436.412353515625 C 1264.3565673828125 436.412353515625 1265.123291015625 436.3390197753906 1265.9832763671875 436.1923522949219 C 1266.84326171875 436.0523376464844 1267.893310546875 435.5523376464844 1269.13330078125 434.6923522949219 C 1274.2999267578125 432.7790222167969 1279.5865478515625 430.38568115234375 1284.9932861328125 427.5123596191406 C 1290.39990234375 424.64569091796875 1295.5899658203125 421.6090087890625 1300.563232421875 418.40234375 C 1305.53662109375 415.1956787109375 1310.103271484375 411.9923400878906 1314.26318359375 408.7923583984375 C 1318.4232177734375 405.585693359375 1321.889892578125 402.6923522949219 1324.6632080078125 400.11236572265625 C 1325.429931640625 399.43902587890625 1326.196533203125 398.9590148925781 1326.9632568359375 398.67236328125 C 1327.72998046875 398.38568115234375 1328.446533203125 398.2423400878906 1329.11328125 398.2423400878906 C 1330.7398681640625 398.2423400878906 1332.0098876953125 398.8656921386719 1332.9232177734375 400.11236572265625 C 1333.8299560546875 401.35235595703125 1334.283203125 402.92901611328125 1334.283203125 404.84234619140625 C 1334.283203125 407.80902099609375 1333.349853515625 411.1090087890625 1331.4832763671875 414.7423400878906 C 1329.6165771484375 418.37567138671875 1326.6766357421875 421.7723388671875 1322.6632080078125 424.9323425292969 C 1317.2099609375 428.85235595703125 1312.2099609375 432.43902587890625 1307.6632080078125 435.6923522949219 C 1303.1165771484375 438.9456787109375 1298.4765625 441.98236083984375 1293.7432861328125 444.8023376464844 C 1289.0098876953125 447.6290283203125 1283.93994140625 450.2623596191406 1278.533203125 452.7023620605469 C 1273.1265869140625 455.13568115234375 1266.7899169921875 457.4056701660156 1259.523193359375 459.5123596191406 C 1257.03662109375 460.2790222167969 1254.7633056640625 460.85235595703125 1252.7032470703125 461.23236083984375 C 1250.64990234375 461.6190185546875 1248.7633056640625 461.8123474121094 1247.043212890625 461.8123474121094 C 1241.969970703125 461.8123474121094 1238.2633056640625 460.3990173339844 1235.9232177734375 457.5723571777344 C 1233.5765380859375 454.7523498535156 1232.4031982421875 450.80902099609375 1232.4031982421875 445.7423400878906 C 1232.4031982421875 445.06903076171875 1232.4266357421875 444.42236328125 1232.4732666015625 443.8023376464844 C 1232.5198974609375 443.1823425292969 1232.59326171875 442.489013671875 1232.6932373046875 441.72235107421875 C 1232.8798828125 438.75567626953125 1233.6666259765625 435.5023498535156 1235.05322265625 431.96234130859375 C 1236.43994140625 428.42236328125 1238.1165771484375 424.78900146484375 1240.083251953125 421.0623474121094 C 1242.043212890625 417.3290100097656 1244.123291015625 413.6223449707031 1246.3232421875 409.9423522949219 C 1248.523193359375 406.25567626953125 1250.556640625 402.7623596191406 1252.4232177734375 399.46234130859375 C 1254.283203125 396.162353515625 1255.8365478515625 393.22235107421875 1257.083251953125 390.642333984375 C 1258.3299560546875 388.0556945800781 1258.9532470703125 385.94903564453125 1258.9532470703125 384.3223571777344 C 1258.9532470703125 382.8890075683594 1258.546630859375 381.66900634765625 1257.7332763671875 380.662353515625 C 1256.919921875 379.662353515625 1255.699951171875 379.162353515625 1254.0732421875 379.162353515625 C 1247.946533203125 379.162353515625 1242.13330078125 380.97900390625 1236.63330078125 384.61236572265625 C 1231.13330078125 388.24566650390625 1225.9932861328125 392.7190246582031 1221.2132568359375 398.0323486328125 C 1216.4266357421875 403.3390197753906 1212.026611328125 408.9590148925781 1208.0133056640625 414.892333984375 C 1203.9932861328125 420.81903076171875 1200.4532470703125 426.12567138671875 1197.393310546875 430.8123474121094 C 1195.47998046875 433.97235107421875 1193.7332763671875 437.3456726074219 1192.1531982421875 440.9323425292969 C 1190.5732421875 444.5190124511719 1188.9232177734375 447.8656921386719 1187.2032470703125 450.97235107421875 C 1185.4832763671875 454.085693359375 1183.546630859375 456.66900634765625 1181.393310546875 458.72235107421875 C 1179.2398681640625 460.7823486328125 1176.53662109375 461.8123474121094 1173.283203125 461.8123474121094 C 1169.9366455078125 461.8123474121094 1167.306640625 460.7590026855469 1165.393310546875 458.65234375 C 1163.4798583984375 456.5456848144531 1162.523193359375 453.96234130859375 1162.523193359375 450.90234375 C 1162.523193359375 449.27569580078125 1163.1932373046875 446.64569091796875 1164.533203125 443.0123596191406 C 1165.873291015625 439.3790283203125 1167.59326171875 435.16900634765625 1169.6932373046875 430.3823547363281 C 1171.7999267578125 425.60235595703125 1174.169921875 420.46234130859375 1176.80322265625 414.96234130859375 C 1179.429931640625 409.46234130859375 1182.0599365234375 404.009033203125 1184.6932373046875 398.60235595703125 C 1187.3199462890625 393.1956787109375 1189.8299560546875 388.10235595703125 1192.2232666015625 383.3223571777344 C 1194.6165771484375 378.5356750488281 1196.5799560546875 374.4690246582031 1198.11328125 371.1223449707031 ZM 1352.79345703125 377.4323425292969 C 1358.6268310546875 380.4990234375 1363.840087890625 383.9923400878906 1368.4334716796875 387.912353515625 C 1373.0267333984375 391.83233642578125 1376.9234619140625 395.9690246582031 1380.1234130859375 400.3223571777344 C 1383.330078125 404.6756896972656 1385.7701416015625 409.0990295410156 1387.4434814453125 413.59234619140625 C 1389.1168212890625 418.09234619140625 1389.9534912109375 422.4956970214844 1389.9534912109375 426.8023376464844 C 1389.9534912109375 432.2490234375 1388.400146484375 437.1490173339844 1385.29345703125 441.5023498535156 C 1382.186767578125 445.8556823730469 1378.1201171875 449.5390319824219 1373.093505859375 452.5523376464844 C 1368.073486328125 455.565673828125 1362.33349609375 457.86236572265625 1355.8734130859375 459.4423522949219 C 1349.420166015625 461.0223388671875 1342.8934326171875 461.8123474121094 1336.29345703125 461.8123474121094 C 1331.320068359375 461.8123474121094 1326.48681640625 461.2623596191406 1321.79345703125 460.162353515625 C 1317.1068115234375 459.0623474121094 1312.8267822265625 457.36236572265625 1308.9534912109375 455.0623474121094 C 1305.080078125 452.7690124511719 1301.7568359375 449.8290100097656 1298.9833984375 446.2423400878906 C 1296.2100830078125 442.6556701660156 1294.2501220703125 438.37567138671875 1293.103515625 433.40234375 C 1292.91015625 432.63568115234375 1292.8134765625 432.0123596191406 1292.8134765625 431.5323486328125 C 1292.8134765625 428.9523620605469 1293.7235107421875 426.72900390625 1295.54345703125 424.86236572265625 C 1297.3568115234375 422.9956970214844 1299.3634033203125 422.0623474121094 1301.5634765625 422.0623474121094 C 1302.6168212890625 422.0623474121094 1303.7901611328125 422.2523498535156 1305.08349609375 422.6323547363281 C 1306.3701171875 423.0190124511719 1307.35009765625 423.8823547363281 1308.0234375 425.22235107421875 C 1309.263427734375 427.51568603515625 1311.0101318359375 429.5723571777344 1313.263427734375 431.3923645019531 C 1315.5101318359375 433.2056884765625 1318.0201416015625 434.759033203125 1320.79345703125 436.0523376464844 C 1323.5667724609375 437.3456726074219 1326.5068359375 438.3490295410156 1329.6134033203125 439.0623474121094 C 1332.726806640625 439.7823486328125 1335.766845703125 440.1423645019531 1338.7333984375 440.1423645019531 C 1341.79345703125 440.1423645019531 1344.7333984375 439.8556823730469 1347.553466796875 439.2823486328125 C 1350.3734130859375 438.7090148925781 1352.860107421875 437.79901123046875 1355.013427734375 436.5523376464844 C 1357.166748046875 435.3123474121094 1358.8668212890625 433.7356872558594 1360.1134033203125 431.8223571777344 C 1361.353515625 429.9090270996094 1361.9735107421875 427.565673828125 1361.9735107421875 424.7923583984375 C 1361.9735107421875 419.912353515625 1360.8734130859375 415.4156799316406 1358.6734619140625 411.3023681640625 C 1356.4735107421875 407.18902587890625 1353.6268310546875 403.38568115234375 1350.1334228515625 399.892333984375 C 1346.646728515625 396.3990173339844 1342.6767578125 393.14569091796875 1338.2235107421875 390.1323547363281 C 1333.7767333984375 387.1190185546875 1329.353515625 384.2256774902344 1324.9534912109375 381.4523620605469 C 1324.4735107421875 381.1656799316406 1323.7568359375 380.3290100097656 1322.803466796875 378.9423522949219 C 1321.843505859375 377.5556945800781 1321.3634033203125 376.14569091796875 1321.3634033203125 374.71234130859375 C 1321.3634033203125 373.565673828125 1321.650146484375 372.65570068359375 1322.2235107421875 371.98236083984375 C 1323.7568359375 369.9756774902344 1325.5267333984375 367.91900634765625 1327.533447265625 365.8123474121094 C 1329.5467529296875 363.7056884765625 1331.7000732421875 361.7690124511719 1333.993408203125 360.0023498535156 C 1336.2867431640625 358.2356872558594 1338.7734375 356.8023681640625 1341.4534912109375 355.7023620605469 C 1344.1334228515625 354.60235595703125 1346.91015625 354.0523681640625 1349.783447265625 354.0523681640625 C 1351.8834228515625 354.0523681640625 1353.843505859375 354.3390197753906 1355.6634521484375 354.912353515625 C 1357.476806640625 355.4856872558594 1359.0068359375 356.2256774902344 1360.25341796875 357.1323547363281 C 1361.5001220703125 358.03900146484375 1362.4801025390625 359.0423583984375 1363.1934814453125 360.142333984375 C 1363.9134521484375 361.2423400878906 1364.2734375 362.2723388671875 1364.2734375 363.23236083984375 C 1364.2734375 364.5723571777344 1363.936767578125 365.86236572265625 1363.263427734375 367.10235595703125 C 1362.5968017578125 368.3489990234375 1361.7135009765625 369.5456848144531 1360.6134033203125 370.6923522949219 C 1359.513427734375 371.8390197753906 1358.2701416015625 372.9856872558594 1356.8834228515625 374.1323547363281 C 1355.496826171875 375.2856750488281 1354.1334228515625 376.38568115234375 1352.79345703125 377.4323425292969 Z" transform="matrix(1.781248688697815, 0, 0, 1.781248688697815, -49.68111038208008, -202.55313110351562)" style="fill: rgb(177, 177, 177); white-space: pre; color: rgb(51, 51, 51);"/></svg>