<?xml version="1.0"?>
<svg version="1.1" xmlns="http://www.w3.org/2000/svg" width="300" height="100" style=""><path fill="#03101a" d="M44.08203125,61.81640625l0,0.17578125q0,0.5859375-0.1171875,0.87890625q0.0390625,0.078125,0.0390625,0.4296875l0,0.15625q0,0.01953125-0.146484375,0.185546875t-0.146484375,0.185546875q0,0.0390625-0.0390625,0.126953125t-0.0390625,0.107421875q-0.0390625,0.13671875-0.13671875,0.419921875t-0.13671875,0.419921875q-0.0390625,0.1171875-0.09765625,0.4296875t-0.13671875,0.56640625t-0.1953125,0.41015625q-0.09765625,0.4296875-0.48828125,0.99609375q-0.0390625,0.05859375-0.1171875,0.283203125t-0.1171875,0.283203125q-0.09765625,0.09765625-0.17578125,0.302734375t-0.15625,0.283203125q-0.01953125,0.17578125-0.224609375,0.419921875t-0.361328125,0.302734375q-0.078125,0.13671875-0.17578125,0.1953125q0,0.37109375-0.0390625,0.52734375q-0.15625,0.37109375-0.625,0.68359375q-0.01953125,0.01953125-0.80078125,0.68359375q-0.15625,0.15625-0.546875,0.4296875t-0.546875,0.44921875q-0.52734375,0.60546875-0.95703125,0.83984375q-0.05859375,0.01953125-0.64453125,0.3515625t-0.91796875,0.33203125q-0.1953125,0-0.46875-0.13671875q-0.05859375-0.01953125-0.25390625-0.1953125t-0.3515625-0.15625q-0.29296875,0.13671875-0.48828125,0.1953125q-0.05859375,0-0.185546875,0.01953125t-0.205078125,0.01953125q-0.1953125,0-0.37109375-0.1171875q-0.05859375,0-0.21484375,0.068359375t-0.21484375,0.087890625l-0.078125,0q-0.05859375,0-0.166015625-0.0390625t-0.166015625-0.0390625q-0.078125,0-0.1171875,0.0390625q-0.546875,0.33203125-0.87890625,0.33203125q-0.15625,0-0.1953125-0.0390625q-0.0390625,0.0390625-0.2734375,0.0390625q-0.37109375,0-0.44921875-0.0390625q-0.46875,0.078125-0.76171875,0.078125q-0.1171875,0.078125-0.3515625,0.078125q-0.25390625,0-0.33203125-0.0390625q-0.05859375-0.01953125-0.556640625-0.126953125t-0.712890625-0.244140625q-0.0390625,0-0.263671875,0.068359375t-0.341796875,0.068359375q-0.21484375,0-0.3125-0.09765625q-0.078125-0.05859375-0.126953125-0.126953125t-0.078125-0.107421875t-0.09765625-0.05859375t-0.185546875-0.01953125q-1.03515625-0.15625-1.26953125-0.3125q-0.1953125,0.0390625-0.41015625,0.1953125q-0.0390625,0.0390625-0.15625,0.0390625q-0.15625,0-0.15625-0.1953125q0-0.15625,0.1171875-0.21484375q-0.44921875-0.390625-1.4453125-0.947265625t-1.34765625-0.810546875q-0.2734375-0.1171875-0.68359375-0.44921875t-0.60546875-0.5859375q-0.15625-0.078125-0.4296875-0.3515625l-0.25390625-0.0390625q-0.234375-0.0390625-0.234375-0.13671875q0-0.078125,0.078125-0.15625q-0.6640625-0.4296875-1.07421875-1.15234375q-0.3515625-0.5078125-0.56640625-0.91796875q-0.0390625-0.078125-0.1171875-0.078125t-0.224609375,0.078125t-0.224609375,0.078125t-0.1171875-0.078125t-0.0390625-0.1953125q0-0.09765625,0.25390625-0.60546875q-0.0390625-0.0390625-0.13671875-0.234375q-0.44921875-0.625-0.5859375-1.171875l-0.13671875-0.1953125l-0.078125,0l-0.15625,0q-0.15625-0.05859375-0.15625-0.15625q0-0.078125,0.09765625-0.205078125t0.17578125-0.166015625q-0.2734375-0.64453125-0.2734375-1.07421875q-0.17578125-0.37109375-0.2734375-1.19140625q-0.01953125-0.09765625-0.185546875-0.17578125t-0.185546875-0.1953125q0-0.01953125-0.01953125-0.078125t-0.01953125-0.078125q0-0.15625,0.13671875-0.37109375t0.15625-0.3125q-0.09765625-0.33203125-0.09765625-0.83984375q0-0.21484375,0.01953125-0.625t0.01953125-0.64453125q0-0.41015625-0.0390625-0.60546875q-0.078125,0.0390625-0.1953125,0.0390625q-0.1953125,0-0.1953125-0.1953125q0-0.3515625,0.4296875-0.60546875q0.09765625-0.15625,0.09765625-0.41015625q0-0.2734375,0.0390625-0.390625q0.078125-0.234375,0.126953125-0.76171875t0.146484375-0.80078125q0.390625-1.2890625,0.68359375-1.6796875l0-0.0390625q0-0.234375,0.13671875-0.634765625t0.25390625-0.556640625l0-0.078125q0-0.25390625,0.17578125-0.556640625t0.390625-0.419921875q0.21484375-0.625,0.60546875-0.76171875q0.0390625-0.0390625,0.0390625-0.1171875l0-0.1171875q0-0.1171875,0.078125-0.15625l0.234375-0.234375q0.09765625-0.234375,0.46875-0.546875t0.41015625-0.37109375q0.078125-0.3515625,0.80078125-0.76171875q0.13671875-0.3125,0.44921875-0.44921875l0-0.1171875q0-0.21484375,0.15625-0.52734375q0.1171875-0.17578125,0.390625-0.390625t0.37109375-0.33203125q0.1953125-0.3125,0.5859375-0.625q0.64453125-0.56640625,1.2109375-0.56640625q0.1953125,0,0.3125,0.0390625q0.15625,0.05859375,0.37109375,0.1953125q0.078125-0.078125,0.3125-0.15625l0.1171875,0q0.29296875,0,0.48828125,0.1953125q0.01953125-0.17578125,0.126953125-0.234375t0.283203125-0.05859375t0.234375-0.01953125q0.3125-0.15625,0.4296875-0.15625q0.01953125,0,0.05859375,0.01953125t0.05859375,0.01953125q0-0.13671875,0.107421875-0.234375t0.224609375-0.09765625q0.09765625,0,0.1953125,0.09765625q0.09765625,0.05859375,0.15625,0.15625q0.01953125,0.0390625,0.0390625,0.0390625t0.0390625-0.009765625t0.068359375-0.029296875t0.087890625-0.0390625q0.01953125,0,0.390625-0.302734375t0.5859375-0.302734375q0.1953125,0,0.390625,0.1953125q0.078125-0.15625,0.1953125-0.15625l0.078125,0q0.13671875,0,0.29296875,0.15625q0.0390625,0,0.09765625-0.01953125t0.09765625-0.01953125l0.078125,0q0.0390625,0,0.17578125-0.01953125t0.21484375-0.01953125l0.09765625,0q0.78125,0.15625,1.11328125,0.15625t0.56640625,0.1171875q0.0390625-0.0390625,0.15625-0.0390625q0.09765625,0,0.322265625,0.068359375t0.322265625,0.068359375l0.078125,0q0.0390625-0.0390625,0.234375-0.0390625q0.2734375,0,0.6640625,0.09765625t0.52734375,0.21484375q0.33203125-0.05859375,1.2109375,0.390625q0.17578125,0.01953125,0.361328125,0.09765625t0.4296875,0.224609375t0.361328125,0.205078125q0.5078125,0.25390625,0.60546875,0.3515625q0.09765625,0.01953125,0.3125-0.05859375t0.33203125-0.05859375q0.15625,0.0390625,0.15625,0.21484375q0,0.05859375-0.01953125,0.166015625t-0.01953125,0.146484375q0,0.078125,0.0390625,0.078125q0.234375,0.09765625,0.52734375,0.3125q-0.01953125-0.078125-0.1171875-0.205078125t-0.09765625-0.185546875q0-0.09765625,0.15625-0.1953125q0.390625-0.1953125,0.44921875-0.29296875q0-0.703125,0.56640625-1.19140625q0.0390625-0.0390625,0.1953125-0.0390625q0.29296875,0,0.52734375,0.078125q0.5078125,0,0.7421875,0.0390625q0.05859375,0,0.29296875-0.0390625t0.3515625-0.0390625q0.15625,0,0.1953125,0.0390625l0.13671875,0q0.1171875,0,0.2734375-0.078125q0.0390625-0.01953125,0.13671875-0.05859375t0.13671875-0.05859375q0.01953125,0,0.234375,0.1171875t0.25390625,0.15625q0.234375,0.09765625,0.234375,0.52734375l0,0.15625q0.0390625,0.1171875,0.0390625,0.4296875q0,0.15625-0.01953125,0.46875t-0.01953125,0.41015625q0.078125,0.8984375,0.078125,1.3671875q0.1171875,0.8203125,0.1171875,1.07421875t-0.0390625,0.33203125q0.078125,0.3125,0.078125,0.83984375q0,0.3515625-0.0390625,0.4296875l0,0.29296875q0,0.6640625-0.1171875,0.95703125q0.078125,0.3125,0.078125,0.72265625q0,0.52734375-0.078125,0.83984375q0.078125,0.703125,0.078125,0.91796875q0,0.3515625-0.078125,0.546875q0,0.01953125-0.01953125,0.21484375t-0.01953125,0.2734375q0,0.1171875,0.0390625,0.15625q0.0390625,0.078125,0.0390625,0.37109375q0,0.1953125-0.0390625,0.2734375q-0.17578125,0.3515625-0.72265625,0.3515625l-0.1171875,0q-0.01953125,0-0.1171875-0.01953125t-0.1171875-0.01953125q-0.0390625-0.0390625-0.15625-0.0390625l-0.21484375,0l-0.1171875,0q-0.078125-0.0390625-0.234375-0.0390625q-0.1171875,0-0.380859375,0.0390625t-0.380859375,0.0390625q-0.0390625,0-0.1171875-0.01953125t-0.1171875-0.01953125q-0.1171875,0.0390625-0.56640625,0.0390625q-0.80078125,0-1.03515625-0.234375q-0.17578125,0-0.25390625-0.126953125t-0.1171875-0.3515625t-0.078125-0.283203125q-0.15625,0.078125-0.1953125,0.078125q-0.1171875,0-0.1171875-0.15625q0-0.1171875,0.078125-0.3515625t0.078125-0.25390625q-0.0390625-0.05859375-0.078125-0.244140625t-0.078125-0.263671875q-0.01953125-0.0390625-0.1171875-0.33203125q-0.2734375,0-0.3125-0.1171875l-0.05859375-0.078125q0-0.078125,0.13671875-0.1953125t0.15625-0.15625q-0.0390625-0.0390625-0.0390625-0.25390625l0-0.1171875q-0.01953125-0.0390625-0.029296875-0.263671875t-0.048828125-0.283203125q0-0.0390625-0.078125-0.0390625q-0.0390625,0-0.166015625,0.01953125t-0.166015625,0.01953125q-0.15625,0-0.15625-0.17578125l0-0.078125q0.01953125-0.078125,0.126953125-0.126953125t0.107421875-0.107421875q0-0.0390625-0.0390625-0.078125l-0.1171875-0.234375q-0.44921875-0.44921875-0.56640625-0.68359375q-0.234375-0.17578125-0.46875-0.48828125q-0.0390625-0.01953125-0.17578125-0.0390625t-0.244140625-0.068359375t-0.107421875-0.126953125q0-0.1171875,0.0390625-0.15625q-0.41015625-0.41015625-1.26953125-0.68359375l-0.1953125-0.078125l-0.146484375-0.05859375t-0.107421875-0.01953125q-0.0390625,0-0.3515625,0.078125q-0.01953125,0-0.068359375,0.01953125t-0.087890625,0.01953125q-0.37109375,0-0.37109375-0.1953125q0-0.05859375,0.078125-0.13671875q-0.390625,0-0.5078125-0.078125q-0.078125,0-0.205078125,0.068359375t-0.205078125,0.068359375l-0.390625-0.09765625q-0.13671875,0-0.21484375,0.0390625q-0.37109375,0-0.546875-0.1171875q-0.0390625,0-0.146484375,0.01953125t-0.146484375,0.01953125q-0.33203125,0-0.5078125-0.1171875q-0.05859375,0.01953125-0.13671875,0.05859375q-0.078125,0.01953125-0.1171875,0.09765625q0,0.01953125-0.009765625,0.0390625l-0.029296875,0.05859375q-0.15625,0.234375-0.2734375,0.3515625q-0.29296875,0.29296875-0.99609375,0.68359375q-0.01953125,0-0.380859375,0.302734375t-0.654296875,0.283203125q-0.25390625-0.01953125-0.5078125,0.15625t-0.41015625,0.21484375l-0.17578125,0.05859375t-0.15625,0.05859375t-0.107421875,0.087890625t-0.126953125,0.185546875q-0.0390625,0.09765625-0.48828125,0.64453125q-0.0390625,0.078125-0.13671875,0.322265625t-0.17578125,0.361328125q0.01953125,0.1171875-0.126953125,0.4296875t-0.244140625,0.41015625q0.01953125,0.13671875-0.05859375,0.3125t-0.205078125,0.390625t-0.166015625,0.29296875q0,0.33203125-0.234375,0.68359375q-0.25390625,0.68359375-0.25390625,0.91796875q0,0.21484375,0.0390625,0.33203125l0,0.078125q0,0.2734375-0.15625,0.5078125l0,0.33203125q0.078125,0.15625,0.078125,0.4296875q0,0.05859375-0.01953125,0.146484375t-0.01953125,0.126953125q0.078125,0.1171875,0.078125,0.56640625q0,0.41015625-0.0390625,0.56640625l0,0.3515625q0.1171875,0,0.17578125,0.1171875q0,0.1171875-0.13671875,0.25390625q-0.0390625,0.0390625-0.0390625,0.078125q0,0.01953125,0.01953125,0.078125t0.01953125,0.078125q0.17578125,0.703125,0.17578125,1.07421875q0.15625,0.546875,0.15625,0.91796875l0,0.13671875q0.17578125,0.33203125,0.3125,0.83984375q0.09765625,0.21484375,0.29296875,0.80078125t0.3515625,0.87890625q0.1171875,0.17578125,0.380859375,0.537109375t0.380859375,0.537109375q0.1953125,0.41015625,0.3515625,0.5078125q0.05859375,0.01953125,0.244140625-0.1171875t0.283203125-0.1171875q0.15625,0.05859375,0.15625,0.15625q0,0.13671875-0.1171875,0.29296875t-0.1953125,0.1953125q0.17578125,0.05859375,0.546875,0.302734375t0.60546875,0.302734375q0.09765625,0.0390625,0.37109375,0.17578125t0.4296875,0.17578125q0.05859375,0,0.13671875-0.0390625t0.13671875-0.0390625q0.078125,0.01953125,0.126953125,0.126953125t0.126953125,0.146484375q0.41015625,0.15625,0.625,0.29296875l0.33203125,0.078125q0.078125,0,0.1953125-0.05859375t0.1953125-0.05859375l0.078125,0q0.13671875,0,0.37109375,0.078125q0.15625-0.078125,0.2734375-0.078125q0.0390625,0,0.1953125,0.078125q0.09765625,0,0.33203125-0.01953125t0.3515625-0.01953125q0.25390625,0,0.33203125,0.0390625l0-0.1171875q0-0.17578125,0.09765625-0.29296875t0.21484375-0.1171875t0.3125,0.1953125q1.58203125-1.8359375,2.8125-2.1875q0.1171875-0.0390625,0.390625-0.0390625q0.21484375,0,0.33203125,0.0390625q0.078125-0.078125,0.15625-0.234375t0.1171875-0.21484375t0.205078125-0.21484375t0.2734375-0.302734375t0.126953125-0.244140625q-0.25390625-0.05859375-0.25390625-0.15625q0-0.078125,0.087890625-0.1953125t0.21484375-0.224609375t0.146484375-0.146484375q0-0.234375,0.1953125-0.4296875l0-0.1171875q0-0.3515625,0.1171875-0.52734375q0.01953125-0.078125,0.146484375-0.361328125t0.244140625-0.52734375t0.09765625-0.263671875q-0.0390625-0.0390625-0.0390625-0.1171875q0-0.234375,0.283203125-0.458984375t0.517578125-0.224609375q0.1171875,0,0.15625,0.0390625q0.17578125,0.1171875,0.3125,0.1171875t0.419921875-0.078125t0.419921875-0.078125q0.25390625,0,0.33203125,0.078125q0.13671875,0,0.419921875-0.078125t0.419921875-0.078125l0.15625,0l0.64453125,0q1.03515625,0,1.03515625,0.4296875q0,0.1171875-0.0390625,0.1953125z M40.91796875,68.02734375l-0.078125,0.0390625q0.0390625,0,0.078125-0.0390625l0-0.1171875q-0.1953125,0.15625-0.595703125,0.478515625t-0.595703125,0.478515625q0.3515625,0,0.5078125,0.0390625q0.0390625-0.13671875,0.25390625-0.2734375q0.17578125-0.44921875,0.4296875-0.60546875z M42.36328125,64.94140625l-0.0390625,0l0.0390625,0q-0.60546875,0.48828125-1.845703125,1.38671875t-1.396484375,1.015625q1.97265625-1.2109375,2.48046875-1.40625q0.0390625-0.01953125,0.13671875-0.048828125t0.1171875-0.0390625t0.087890625-0.0390625t0.087890625-0.048828125t0.05859375-0.068359375t0.068359375-0.09765625t0.048828125-0.126953125q0-0.078125,0.078125-0.263671875t0.078125-0.263671875z M40,67.3046875q-0.0390625,0.0390625-0.078125,0.0390625l0.078125-0.0390625q-0.0390625,0.01953125-0.52734375,0.3125q0.01953125,0,2.08984375-1.07421875q-0.87890625,0.33203125-1.5625,0.76171875z M42.55859375,64.0234375l0,0.0390625l0-0.0390625q-0.01953125,0.05859375-0.263671875,0.17578125t-0.52734375,0.263671875t-0.361328125,0.205078125q-0.21484375,0.09765625-0.48828125,0.3125q-0.80078125,0.44921875-1.9921875,1.2890625q-0.1171875,0.078125-0.361328125,0.21484375t-0.361328125,0.21484375q-0.09765625,0.05859375-0.29296875,0.263671875t-0.3515625,0.263671875q-0.390625,0.13671875-0.4296875,0.15625q-0.0390625,0.05859375-0.078125,0.166015625t-0.068359375,0.17578125t-0.09765625,0.126953125t-0.166015625,0.05859375q-0.21484375-0.01953125-0.283203125,0.029296875t-0.09765625,0.1953125t-0.107421875,0.244140625q-0.078125,0.1171875-0.283203125,0.25390625t-0.263671875,0.1953125q1.2109375-0.7421875,5.078125-3.3203125q0.21484375-0.15625,0.654296875-0.458984375t0.654296875-0.458984375q0.01953125,0,0.13671875-0.05859375t0.1953125-0.05859375l0.0390625,0q0.05859375,0,0.078125-0.09765625t0.01953125-0.21484375t0.01953125-0.13671875z M29.00390625,72.6953125l0.15625-0.0390625l-0.15625,0.0390625q1.42578125-0.6640625,4.921875-2.75390625q-0.13671875-0.0390625-0.341796875-0.17578125t-0.302734375-0.13671875q-0.15625,0-0.2734375,0.1171875q-0.56640625,0.44921875-1.3671875,0.95703125q-0.52734375,0.3515625-1.552734375,0.986328125t-1.416015625,0.888671875q0.234375,0.1171875,0.33203125,0.1171875z M32.28515625,69.78515625q-0.87890625,0.48828125-2.51953125,1.4453125t-1.97265625,1.15234375l0.13671875,0q0.234375,0,0.2734375,0.0390625q0.1953125-0.078125,0.5078125-0.3125q0.078125-0.05859375,0.576171875-0.37109375t0.791015625-0.46875q0.21484375-0.13671875,0.673828125-0.439453125t0.693359375-0.439453125q0.09765625-0.05859375,0.2734375-0.205078125t0.322265625-0.244140625t0.244140625-0.15625z M40.95703125,63.49609375q-0.3125,0.21484375-0.3125,0.25390625l0.3125-0.25390625q-0.68359375,0.46875-1.40625,0.87890625q-0.13671875,0.078125-0.21484375,0.15625t-0.107421875,0.13671875t-0.078125,0.17578125t-0.107421875,0.21484375q0.25390625-0.1953125,1.044921875-0.80078125t1.201171875-0.95703125q-0.25390625,0.17578125-0.33203125,0.1953125z M43.125,62.2265625l-0.15625,0.1953125q0.15625-0.15625,0.15625-0.1953125q-0.546875,0.60546875-1.279296875,1.201171875t-1.650390625,1.259765625t-1.38671875,1.0546875q1.50390625-0.83984375,3.3984375-2.0703125q0.0390625-0.01953125,0.185546875-0.1171875t0.205078125-0.09765625q0.078125,0,0.126953125-0.009765625t0.078125-0.01953125t0.048828125-0.0390625t0.029296875-0.05859375t0.01953125-0.087890625t0.029296875-0.09765625q0.13671875-0.3515625,0.1953125-0.91796875z M41.4453125,62.2265625l-0.078125,0.0390625q0.078125,0,0.078125-0.0390625q-0.078125,0.0390625-0.302734375,0.09765625t-0.341796875,0.17578125q-0.078125,0.078125-0.263671875,0.244140625t-0.263671875,0.244140625q-0.46875,0.390625-0.72265625,0.64453125q-0.078125,0.078125-0.107421875,0.1171875t-0.0390625,0.068359375t-0.01953125,0.09765625t-0.029296875,0.146484375q1.5625-0.95703125,2.71484375-1.7578125q-0.46875,0-0.625-0.078125z M39.6484375,62.94921875q0,0.0390625,0.0390625,0.0390625t0.1171875-0.087890625t0.1171875-0.146484375q-0.1171875-0.1171875-0.1171875-0.21484375q-0.01953125,0.05859375-0.078125,0.205078125t-0.078125,0.205078125z M31.15234375,69.78515625q-0.21484375-0.01953125-0.5078125,0.17578125t-0.68359375,0.556640625t-0.44921875,0.419921875q0.09765625-0.05859375,2.08984375-1.19140625q-0.078125,0-0.224609375,0.01953125t-0.224609375,0.01953125z M30,69.58984375l0.0390625,0l-0.0390625,0q-0.05859375,0-0.146484375-0.05859375t-0.126953125-0.05859375l-0.078125,0.078125q-0.05859375,0.078125-0.44921875,0.46875q-0.15625,0.13671875-0.3515625,0.29296875t-0.4296875,0.33203125t-0.37109375,0.29296875q0.5859375-0.37109375,2.1875-1.23046875q-0.1171875-0.1171875-0.234375-0.1171875z M27.44140625,68.41796875l-0.0390625,0l0.0390625,0q-0.15625-0.01953125-0.283203125-0.107421875t-0.166015625-0.087890625q-0.09765625,0-0.3125,0.15625q-0.1171875,0.09765625-1.23046875,1.09375q-0.2734375,0.1953125-0.87890625,0.751953125t-0.60546875,0.712890625l0,0.0390625q0.6640625-0.37109375,1.982421875-1.123046875t1.982421875-1.142578125q-0.25390625-0.05859375-0.48828125-0.29296875z M25.0390625,71.66015625q0.05859375-0.0390625,0.8203125-0.56640625t1.171875-0.8203125q-0.87890625,0.625-2.0703125,1.30859375q0,0.078125,0.078125,0.078125z M26.6015625,67.91015625q-0.09765625-0.05859375-0.29296875,0.009765625t-0.44921875,0.234375t-0.478515625,0.322265625t-0.46875,0.33203125t-0.302734375,0.21484375q-1.07421875,0.703125-1.484375,1.07421875q0.4296875-0.1171875,1.982421875-1.09375t1.494140625-1.09375z M23.046875,69.1015625q0.52734375-0.3125,1.54296875-0.908203125t1.5234375-0.888671875q-0.1171875-0.1171875-0.263671875-0.361328125t-0.205078125-0.322265625q-0.0390625,0.0390625-2.59765625,2.48046875z M25.3515625,66.30859375l0,0.0390625l0.0390625-0.0390625l-0.0390625,0z M24.47265625,64.43359375q-0.078125-0.1171875-0.166015625-0.41015625t-0.107421875-0.3125q-0.546875,0.5859375-1.669921875,1.7578125t-1.689453125,1.7578125q0.6640625-0.3125,2.63671875-1.640625q0.078125-0.078125,0.44921875-0.302734375t0.546875-0.224609375q0.078125,0,0.078125,0.1171875l0,0.13671875q-0.05859375,0.17578125-0.25390625,0.380859375t-0.380859375,0.341796875t-0.46875,0.322265625t-0.361328125,0.224609375q-0.21484375,0.15625-0.625,0.458984375t-0.654296875,0.498046875t-0.576171875,0.46875t-0.5859375,0.52734375q0.01953125,0,0.05859375,0.029296875t0.05859375,0.029296875q0.13671875,0,0.3125-0.087890625t0.390625-0.244140625t0.29296875-0.1953125q0.09765625-0.05859375,1.4453125-0.91796875q0.21484375-0.13671875,0.60546875-0.390625t0.732421875-0.458984375t0.654296875-0.361328125q-0.6640625-0.859375-0.72265625-1.50390625z M18.88671875,66.23046875q0.56640625-0.3125,1.71875-0.986328125t1.71875-0.986328125q0.2734375-0.15625,0.810546875-0.478515625t0.791015625-0.478515625q0.078125-0.078125,0.078125-0.1953125q0-0.09765625-0.1953125-0.87890625q-2.40234375,1.6796875-2.8125,1.9921875q-0.6640625,0.46875-1.640625,1.2890625q-0.05859375,0.0390625-0.146484375,0.107421875t-0.13671875,0.1171875l-0.107421875,0.107421875t-0.087890625,0.107421875t-0.029296875,0.107421875q0,0.13671875,0.0390625,0.17578125z M23.6328125,61.11328125q0,0.0390625-0.341796875,0.3125t-0.78125,0.595703125t-0.478515625,0.361328125q-0.25390625,0.234375-0.76171875,0.654296875t-0.78125,0.634765625q0.390625-0.1953125,1.9921875-1.171875q0.17578125-0.09765625,0.537109375-0.29296875t0.537109375-0.29296875q0.15625-0.09765625,0.15625-0.29296875q0-0.0390625-0.0390625-0.21484375t-0.0390625-0.29296875z M17.67578125,63.6328125l0.41015625-0.33203125l-0.41015625,0.33203125q3.5546875-2.890625,4.8828125-4.12109375q-0.5859375,0.33203125-1.767578125,1.005859375t-1.748046875,1.025390625q-0.2734375,0.13671875-0.791015625,0.439453125t-0.771484375,0.439453125q-0.0390625,0-0.0390625,0.1171875q0,0.390625,0.234375,1.09375z M17.12890625,59.82421875l0.0390625-0.0390625l-0.0390625,0.0390625q0.0390625,0.0390625,0.0390625,0.078125q0.37109375-0.3515625,0.80078125-0.72265625t0.751953125-0.64453125t0.888671875-0.693359375t0.80078125-0.595703125t0.91796875-0.654296875t0.8203125-0.576171875t0.927734375-0.64453125t0.849609375-0.5859375q-0.859375,0.25390625-2.51953125,1.40625q-2.01171875,1.30859375-3.65234375,2.51953125q-0.234375,0.15625-0.3515625,0.15625q-0.1953125,0-0.1953125-0.1953125q0-0.01953125,0.01953125-0.078125t0.01953125-0.09765625q0.05859375-0.17578125,0.21484375-0.390625t0.263671875-0.322265625t0.37109375-0.33203125t0.302734375-0.263671875q1.03515625-0.859375,3.6328125-2.71484375q-3.22265625,1.953125-4.47265625,2.71484375q-0.1953125,0.1171875-0.29296875,0.263671875t-0.107421875,0.29296875t-0.009765625,0.341796875t-0.01953125,0.41015625q0.078125,0.234375,0.078125,0.64453125q0,0.37109375-0.078125,0.68359375z M25.0390625,52.2265625l0,0.0390625l0-0.0390625q0-0.01953125,0.01953125-0.05859375t0.01953125-0.05859375q-1.03515625,0.7421875-1.5234375,1.03515625q0.91796875-0.5078125,1.2109375-0.56640625q0.1171875-0.01953125,0.13671875-0.01953125t0.048828125-0.01953125t0.01953125-0.048828125t0.009765625-0.09765625t0.05859375-0.166015625z M23.515625,58.33984375l-0.0390625,0l0.0390625,0q0-0.0390625-0.0390625-0.0390625q-0.05859375,0-0.166015625,0.087890625t-0.224609375,0.1953125t-0.15625,0.126953125q-0.15625,0.1171875-0.5078125,0.361328125t-0.5078125,0.361328125q0.0390625-0.01953125,0.4296875-0.29296875t0.712890625-0.439453125t0.458984375-0.107421875l0-0.17578125l0-0.078125z M23.7109375,55.46875l0,0.0390625l0-0.0390625q0.01953125-0.01953125,0.048828125-0.05859375t0.048828125-0.05859375q-2.44140625,1.66015625-4.53125,3.28125q-0.7421875,0.546875-1.7578125,1.42578125q-0.3125,0.3125-0.3125,0.64453125q0,0.0390625,0.01953125,0.21484375t0.01953125,0.3125q0.48828125-0.21484375,0.966796875-0.458984375t1.005859375-0.5859375t0.869140625-0.56640625t0.9765625-0.6640625l0.888671875-0.615234375q0.078125-0.05859375,0.517578125-0.3125t0.68359375-0.46875t0.322265625-0.44921875l0-0.1953125q0-0.7421875,0.234375-1.4453125z M24.609375,53.37890625l0-0.0390625l0,0.0390625l0-0.1953125q-0.3515625,0.234375-1.298828125,0.859375t-1.435546875,0.95703125t-1.240234375,0.87890625t-1.357421875,1.044921875t-1.15234375,1.025390625q3.22265625-2.3046875,4.8046875-3.125q0.546875-0.33203125,1.03515625-0.44921875q0.13671875-0.0390625,0.25390625-0.224609375t0.234375-0.439453125t0.15625-0.33203125z M20.83984375,53.90625l0.91796875-0.56640625q-0.76171875,0.44921875-0.91796875,0.56640625q0.859375-0.5078125,2.59765625-1.533203125t2.59765625-1.552734375q-0.546875,0.21484375-1.0546875,0.458984375t-1.162109375,0.654296875t-0.927734375,0.5859375t-1.11328125,0.7421875t-0.9375,0.64453125z M19.27734375,54.1015625l0.41015625-0.2734375q0.0390625,0-0.56640625,0.4296875l0.15625-0.15625q0.46875-0.33203125,5.1171875-3.5546875q-3.75,2.265625-5.2734375,2.98828125q-0.68359375,0.33203125-0.99609375,0.41015625q-0.1953125,0.078125-0.3515625,0.712890625t-0.25390625,0.732421875q0.33203125-0.25390625,0.966796875-0.712890625t0.791015625-0.576171875z M20.52734375,52.3828125l0.390625-0.234375q-0.76171875,0.390625-0.76171875,0.4296875q0.13671875-0.078125,0.37109375-0.1953125q2.98828125-1.6796875,8.18359375-4.9609375q-1.42578125,0.80078125-4.013671875,2.294921875t-3.662109375,2.099609375q-0.05859375,0.0390625-0.771484375,0.4296875t-1.103515625,0.546875q-0.05859375,0.0390625-0.341796875,0.15625t-0.419921875,0.244140625t-0.1953125,0.341796875q0.33203125-0.1171875,2.32421875-1.15234375z M18.0859375,56.30859375l-0.1171875,0.078125l0.15625-0.078125l-0.0390625,0q-0.0390625,0.01953125-0.263671875,0.15625t-0.390625,0.2734375t-0.185546875,0.21484375q0.234375-0.13671875,0.68359375-0.419921875t0.6640625-0.419921875q-0.2734375,0.13671875-0.5078125,0.1953125z M20.87890625,59.55078125l-0.64453125,0.4296875q-0.01953125,0,0.1953125-0.146484375t0.439453125-0.302734375t0.244140625-0.15625l-0.234375,0.17578125q-1.26953125,0.83984375-2.63671875,1.640625q-0.13671875,0.05859375-0.419921875,0.1953125t-0.419921875,0.1953125q-0.1171875,0.05859375-0.1171875,0.15625l0.01953125,0.09765625q0.01953125,0.078125,0.01953125,0.15625q0.5859375-0.41015625,1.728515625-1.142578125t1.630859375-1.064453125q0.703125-0.41015625,1.7578125-1.19140625l0.29296875-0.1953125q0.3125-0.1953125,0.517578125-0.37109375t0.224609375-0.2734375q-0.234375,0.17578125-2.59765625,1.796875z M21.3671875,61.0546875l-0.33203125,0.29296875q0.52734375-0.41015625,0.52734375-0.44921875q-0.078125,0.0390625-0.1953125,0.15625q-0.078125,0.078125-3.0078125,2.5390625q0.9375-0.52734375,3.96484375-2.36328125l0.37109375-0.1953125q0.37109375-0.1953125,0.615234375-0.361328125t0.244140625-0.244140625q-0.0390625-0.234375-0.0390625-0.68359375l0-0.68359375q-0.17578125,0.21484375-0.37109375,0.4296875t-0.44921875,0.439453125t-0.41015625,0.361328125t-0.48828125,0.41015625t-0.4296875,0.3515625z M32.63671875,48.33984375l0.0390625,0l-0.0390625,0q0.234375-0.078125,0.33203125-0.078125q0.15625,0,0.3125,0.078125q0.05859375,0,0.13671875,0.01953125t0.13671875,0.01953125q0.29296875-0.1953125,0.41015625-0.3125q1.015625-0.8203125,1.6796875-1.484375q-1.15234375,0.68359375-1.640625,0.91796875q-0.09765625,0.09765625-0.72265625,0.478515625t-0.64453125,0.361328125z M35.0390625,46.26953125l-0.078125,0.078125l0.078125-0.078125q-0.3515625,0.25390625-1.09375,0.7421875t-1.11328125,0.7421875q0.60546875-0.33203125,2.8125-1.6015625l-0.1953125-0.09765625q-0.09765625,0-0.41015625,0.21484375z M36.953125,46.81640625q-0.234375,0.13671875-0.234375,0.17578125l0.234375-0.17578125q-0.44921875,0.29296875-1.30859375,0.869140625t-1.2890625,0.849609375l0.1171875,0.0390625t0.087890625,0.0390625t0.048828125,0.01953125q0.0390625,0,0.1953125-0.09765625q0.78125-0.48828125,0.91796875-0.5859375q0.7421875-0.4296875,1.484375-1.03515625q-0.0390625-0.01953125-0.126953125-0.048828125t-0.126953125-0.048828125z M41.484375,55.6640625l0.1171875-0.1171875q-0.1171875,0.078125-0.1171875,0.1171875q0.3515625-0.234375,0.76171875-0.52734375q0.234375-0.15625,0.390625-0.234375q-0.0390625-0.1171875-0.0390625-0.3515625l0-0.52734375l0-0.234375q-1.26953125,1.26953125-1.8359375,1.953125l0.078125,0q0.078125,0,0.244140625-0.05859375t0.244140625-0.05859375q0.1171875,0,0.15625,0.0390625z M39.35546875,54.94140625q0.09765625-0.05859375,0.21484375-0.1171875l0.15625-0.078125t0.0390625-0.0390625q-0.41015625,0.1953125-0.41015625,0.234375q1.71875-0.9375,2.890625-1.640625q0.21484375-0.13671875,0.2734375-0.185546875t0.05859375-0.205078125t0.01953125-0.25390625q0.0390625-0.3125,0.0390625-0.91796875q-1.796875,1.6015625-2.1875,1.97265625q-0.0390625,0.0390625-0.380859375,0.33203125t-0.537109375,0.517578125t-0.17578125,0.380859375z M42.48046875,49.82421875q0.0390625,0.0390625,0.0390625,0.1171875q0,0.17578125-0.3515625,0.64453125q-0.60546875,0.78125-2.40234375,2.32421875q0.234375-0.15625,0.87890625-0.634765625t1.03515625-0.732421875q0.0390625-0.01953125,0.224609375-0.13671875t0.2734375-0.166015625t0.25390625-0.09765625t0.283203125-0.029296875q0.078125-0.390625,0.078125-0.60546875q0-0.2734375-0.05859375-0.791015625t-0.05859375-0.732421875q-0.234375,0.17578125-0.712890625,0.537109375t-0.732421875,0.537109375q0.78125-0.390625,0.9765625-0.390625q0.17578125,0,0.2734375,0.15625z M42.55859375,48.02734375l-0.078125,0.078125q0.078125-0.0390625,0.078125-0.078125q-0.3125,0.21484375-1.240234375,0.8203125t-1.435546875,0.9765625q-0.05859375,0.0390625-0.41015625,0.283203125t-0.556640625,0.439453125t-0.283203125,0.390625q0.2734375,0,0.9765625-0.46875q0.1953125-0.13671875,0.400390625-0.302734375t0.458984375-0.37109375t0.41015625-0.322265625q0.1953125-0.15625,0.595703125-0.46875t0.595703125-0.46875q0.05859375-0.0390625,0.15625-0.087890625t0.146484375-0.078125t0.107421875-0.078125t0.078125-0.107421875t0-0.15625z M42.55859375,47.0703125l0,0.0390625l0-0.0390625q0,0.078125-0.361328125,0.341796875t-0.810546875,0.546875t-0.46875,0.302734375q-0.29296875,0.21484375-0.859375,0.5859375t-1.015625,0.693359375t-0.83984375,0.634765625q0.703125-0.44921875,2.91015625-2.03125q0.78125-0.48828125,1.015625-0.60546875q0.078125-0.0390625,0.1953125-0.087890625t0.13671875-0.078125t0.0390625-0.087890625t0.05859375-0.21484375z M37.12890625,50.21484375l0.15625-0.078125l-0.15625,0.078125q0.80078125-0.390625,1.796875-1.07421875q-0.1953125,0.09765625-0.99609375,0.576171875t-0.80078125,0.498046875z M42.51953125,46.54296875l-0.3515625,0.15625l0.3515625-0.15625q-1.484375,0.72265625-4.08203125,2.44140625q0.87890625-0.5078125,2.48046875-1.3671875q0.05859375-0.01953125,0.2734375-0.13671875t0.419921875-0.224609375t0.419921875-0.244140625t0.3515625-0.25390625t0.13671875-0.21484375z M39.43359375,47.87109375q0.60546875-0.37109375,0.64453125-0.37109375q-0.76171875,0.48828125-0.80078125,0.48828125q0.0390625-0.0390625,0.15625-0.1171875q1.4453125-0.8984375,2.20703125-1.2890625q0.05859375-0.0390625,0.33203125-0.166015625t0.439453125-0.25390625t0.146484375-0.263671875q-0.01953125,0-0.05859375,0.01953125t-0.05859375,0.01953125q-0.078125,0-0.234375-0.05859375t-0.21484375-0.05859375q-0.078125,0-0.15625,0.078125q-0.09765625,0.05859375-0.302734375,0.205078125t-0.302734375,0.205078125q-1.30859375,0.8984375-1.71875,1.11328125q-0.09765625,0.29296875-0.46875,0.44921875l-0.1171875,0.078125q-0.05859375,0-0.146484375-0.05859375t-0.146484375-0.05859375q-0.21484375,0.2734375-0.654296875,0.72265625t-0.615234375,0.6640625q0.41015625-0.29296875,1.171875-0.78125t0.8984375-0.56640625z M38.046875,47.421875l-0.078125,0q-0.13671875,0-0.41015625,0.2734375q0.48828125-0.234375,0.48828125-0.2734375z M36.3671875,48.26171875l-0.25390625,0.1953125q0.09765625-0.078125,0.25390625-0.1953125q-0.15625,0.1171875-0.5078125,0.341796875t-0.5078125,0.341796875l0.09765625,0.0390625q0.13671875,0,0.3125-0.13671875t0.361328125-0.341796875t0.244140625-0.244140625z M35.95703125,49.21875l0.41015625-0.2734375q-0.09765625,0.0390625-0.41015625,0.2734375q0.15625,0.01953125,0.302734375,0.17578125t0.185546875,0.15625q0.078125,0,0.1953125-0.1171875q0.234375-0.2734375,0.712890625-0.791015625t0.732421875-0.771484375q-0.68359375,0.3125-2.12890625,1.34765625z M38.4375,51.73828125q0.76171875-0.546875,0.83984375-0.625q-0.25390625,0.15625-0.56640625,0.15625q-0.4296875,0-0.4296875-0.33203125q0-0.234375,0.2734375-0.5078125q-0.52734375,0.3515625-0.83984375,0.4296875q0.09765625,0.1171875,0.3515625,0.41015625t0.37109375,0.46875z M38.96484375,52.98828125q0,0.0390625,0.0390625,0.0390625q0.05859375,0,0.166015625-0.09765625t0.224609375-0.21484375t0.15625-0.13671875q0.234375-0.234375,0.52734375-0.46875q0.15625-0.13671875,0.48828125-0.44921875t0.5078125-0.46875q0.76171875-0.76171875,0.99609375-1.09375q-0.3125,0.1171875-0.673828125,0.3125t-0.595703125,0.361328125t-0.625,0.44921875t-0.56640625,0.400390625q-0.078125,0.05859375-0.302734375,0.185546875t-0.361328125,0.25390625t-0.13671875,0.244140625l0,0.078125q0.15625,0.21484375,0.15625,0.60546875z M40.3125,52.94921875l-0.15625,0.1171875l0.29296875-0.1953125q-0.05859375,0-0.13671875,0.078125q-0.0390625,0.0390625-0.361328125,0.244140625t-0.60546875,0.400390625t-0.263671875,0.2734375q0.0390625,0.1953125,0.1171875,0.5078125q0.87890625-0.87890625,2.71484375-2.55859375q-0.21484375,0.13671875-0.751953125,0.537109375t-0.849609375,0.595703125z M39.765625,55.625l0.0390625,0l-0.078125,0l0.0390625,0l0.3125,0q0.29296875,0,0.56640625-0.3125q0.15625-0.1953125,1.26953125-1.40625q-0.3125,0.17578125-0.91796875,0.537109375t-0.91796875,0.537109375q-0.01953125,0.01953125-0.1953125,0.107421875t-0.29296875,0.166015625t-0.1171875,0.13671875q0.0390625,0.078125,0.0390625,0.1953125l0,0.0390625l0.09765625,0l0.15625,0z M42.59765625,55.6640625q0.078125,0,0.078125-0.078125q0-0.0390625-0.01953125-0.1171875t-0.01953125-0.1171875q-0.1953125,0.1171875-0.5078125,0.3515625q0.05859375,0,0.185546875-0.01953125t0.205078125-0.01953125l0.078125,0z M36.5625,46.58203125q-0.0390625-0.01953125-0.13671875-0.078125t-0.13671875-0.078125q-0.21484375,0.2734375-0.41015625,0.4296875q-0.078125,0.09765625-0.1953125,0.21484375t-0.263671875,0.25390625t-0.224609375,0.21484375q0.0390625-0.01953125,0.390625-0.283203125t0.6640625-0.478515625t0.3125-0.1953125z M33.28125,45.5078125l-0.0390625,0l0.0390625,0q-0.078125,0-0.21484375-0.01953125t-0.1953125-0.01953125q-0.3125,0-0.703125,0.2734375q-0.1953125,0.1171875-1.2890625,0.87890625q-0.3125,0.1953125-2.94921875,2.01171875q-3.96484375,2.65625-5.48828125,3.75q1.71875-1.11328125,3.1640625-1.796875q0.078125-0.01953125,0.21484375-0.078125t0.21484375-0.078125q0.078125-0.0390625,0.224609375-0.234375t0.224609375-0.25390625q0.17578125-0.15625,0.87890625-0.3515625q0.44921875-0.1171875,0.91796875-0.52734375q0.52734375-0.3515625,0.60546875-0.4296875q0.44921875-0.44921875,0.72265625-0.41015625q0.1953125,0,0.4296875,0.234375q0.078125-0.1171875,0.3125-0.2734375q0.4296875-0.25390625,0.64453125-0.4296875q0.37109375-0.21484375,1.044921875-0.673828125t1.23046875-0.80078125t1.083984375-0.576171875q-0.13671875-0.078125-1.07421875-0.1953125z M29.19921875,45.2734375l-0.0390625,0l0.078125,0l-0.0390625,0q-0.09765625,0-0.17578125-0.068359375t-0.13671875-0.068359375q-0.0390625,0-0.1171875,0.0390625q-0.13671875,0.13671875-0.33203125,0.13671875l-0.078125,0l-0.0390625,0q-0.0390625,0-0.078125,0.0390625q-0.1171875,0.09765625-0.361328125,0.2734375t-0.361328125,0.2734375q-0.48828125,0.390625-1.46484375,1.1328125t-1.4453125,1.11328125q-0.78125,0.5859375-2.34375,1.787109375t-2.34375,1.806640625q1.97265625-1.15234375,5.56640625-2.98828125q0.859375-0.44921875,1.767578125-1.005859375t2.0703125-1.318359375t1.708984375-1.11328125q-0.078125,0-0.205078125-0.01953125t-0.2734375-0.05859375t-0.205078125-0.05859375l-0.1171875,0q-0.3125,0-0.4296875-0.078125q-0.17578125,0.17578125-0.52734375,0.17578125l-0.078125,0z M20.83984375,49.43359375l0.078125,0l-0.078125,0q0.52734375-0.21484375,0.64453125-0.29296875q0.68359375-0.390625,0.91796875-0.5078125l-0.17578125-0.05859375t-0.15625-0.0390625t-0.1953125,0.09765625q-0.078125,0.05859375-0.25390625,0.15625t-0.25390625,0.15625q-0.05859375,0.05859375-0.224609375,0.244140625t-0.302734375,0.244140625z M23.88671875,47.421875q-0.0390625,0.0390625-0.0390625,0.078125l0.078125-0.078125l-0.0390625,0q-0.078125,0.13671875-0.33203125,0.48828125q1.328125-0.8203125,3.28125-2.12890625q-0.1953125,0.01953125-0.44921875,0.146484375t-0.52734375,0.322265625t-0.41015625,0.25390625q-0.2734375,0.15625-0.791015625,0.458984375t-0.771484375,0.458984375z M18.671875,52.1875q0.01953125-0.05859375,0.322265625-0.263671875t0.439453125-0.263671875q0.4296875-0.37109375,1.89453125-1.484375q1.30859375-0.99609375,2.83203125-2.1875q-0.09765625,0.05859375-0.6640625,0.419921875t-0.78125,0.48828125t-0.6640625,0.380859375t-0.8203125,0.4296875t-0.7421875,0.3125q-0.234375,0.09765625-0.478515625,0.44921875t-0.322265625,0.4296875l-0.52734375,0.52734375q-0.15625,0.15625-0.234375,0.1953125q0,0.078125-0.107421875,0.302734375t-0.146484375,0.263671875z M17.87109375,64.296875q0.09765625,0.234375,0.341796875,0.703125t0.341796875,0.703125q0.52734375-0.48828125,2.01171875-1.640625q-0.09765625,0.05859375-1.85546875,1.07421875q-0.0390625,0.0390625-0.15625,0.0390625q-0.1953125,0-0.1953125-0.15625q0-0.078125,0.1171875-0.1953125q0.078125-0.078125,0.263671875-0.224609375t0.263671875-0.224609375q0.546875-0.44921875,1.630859375-1.328125t1.611328125-1.30859375q-0.99609375,0.56640625-2.48046875,1.484375q-0.21484375,0.09765625-1.0546875,0.546875t-0.83984375,0.52734375z M19.921875,67.94921875q0.1953125,0.3125,0.390625,0.3125q0.13671875,0,0.322265625-0.146484375t0.41015625-0.400390625t0.322265625-0.33203125q-0.68359375,0.41015625-0.87890625,0.41015625q-0.05859375,0-0.25390625-0.09765625q-0.1171875-0.05859375-0.1171875-0.15625l0.1171875-0.234375q0.37109375-0.3125,0.99609375-1.03515625q0.3515625-0.3515625,1.015625-1.0546875t0.99609375-1.03515625q-2.109375,1.2109375-4.16015625,2.40234375q0.13671875,0.234375,0.419921875,0.68359375t0.419921875,0.68359375z M21.40625,69.1796875q0.078125,0.05859375,0.166015625,0.166015625t0.15625,0.17578125t0.146484375,0.068359375q0.1171875,0,0.1953125-0.078125q0.13671875-0.13671875,0.4296875-0.419921875t0.4296875-0.419921875q0.25390625-0.234375,0.732421875-0.703125t0.732421875-0.703125q-0.80078125,0.546875-3.1640625,1.796875q0.01953125,0.01953125,0.087890625,0.05859375t0.087890625,0.05859375z M22.55859375,70.13671875q0.0390625,0,0.078125,0.0390625q0.01953125-0.15625,0.1171875-0.29296875t0.283203125-0.2734375t0.3125-0.224609375t0.3515625-0.21484375t0.263671875-0.146484375q-1.5625,0.859375-1.6796875,0.91796875q0.15625,0.078125,0.2734375,0.1953125z M23.125,70.5078125l0.1171875,0l-0.1171875,0l0.46875,0.234375q0.1953125-0.2734375,0.72265625-0.80078125q-0.72265625,0.48828125-1.19140625,0.56640625z M25.91796875,71.953125q0.1953125,0,0.91796875-0.60546875q0.2734375-0.17578125,0.95703125-0.68359375q0.99609375-0.78125,1.2890625-1.07421875q-0.6640625,0.3515625-1.826171875,1.162109375t-1.689453125,1.103515625q0.0390625,0.01953125,0.146484375,0.05859375t0.205078125,0.0390625z M29.08203125,70.78125q-0.05859375,0.01953125-0.966796875,0.546875t-1.357421875,0.8203125q0.17578125,0,0.41015625,0.1171875q0.09765625-0.078125,0.29296875-0.244140625t0.29296875-0.244140625q0.48828125-0.3515625,1.328125-0.99609375z M30.60546875,72.6171875l-0.0390625,0l0.0390625,0l0.15625,0q0.21484375,0,0.64453125-0.2734375q0.46875-0.37109375,1.23046875-0.83984375q0.80078125-0.48828125,2.216796875-1.5234375t1.748046875-1.26953125q-4.58984375,2.890625-6.640625,3.9453125q0.0390625,0,0.09765625,0.01953125t0.09765625,0.01953125q0.078125,0,0.224609375-0.0390625t0.224609375-0.0390625z M32.32421875,72.75390625l0-0.05859375l0,0.05859375q0.01953125-0.0390625,0.15625-0.17578125q-0.1953125,0.05859375-0.1953125,0.078125q0,0.05859375,0.0390625,0.09765625z M34.23828125,72.2265625l-0.078125,0l0.078125,0q0.4296875,0.01953125,0.654296875-0.126953125t0.556640625-0.595703125q0.6640625-0.83984375,1.23046875-0.80078125q0.078125-0.05859375,1.953125-1.484375q0.33203125-0.2734375,0.91796875-0.72265625t0.80078125-0.625l0.234375-0.15625t0.302734375-0.205078125t0.25390625-0.205078125t0.185546875-0.234375q-0.46875,0.25390625-1.533203125,0.791015625t-1.85546875,0.986328125t-1.455078125,0.9375q-0.390625,0.2734375-1.201171875,0.869140625t-1.435546875,1.03515625t-1.2109375,0.810546875q0.15625-0.078125,0.56640625-0.078125l0.1953125,0q0.078125-0.0390625,0.15625-0.0390625l0.078125,0q0.13671875,0,0.21484375-0.078125q0.1171875-0.078125,0.390625-0.078125z M36.03515625,73.10546875l-0.0390625,0l0.0390625,0q0.078125-0.0390625,0.1953125-0.0390625q-0.2734375-0.13671875-0.390625-0.37109375q-0.078125,0.15625-0.078125,0.25390625t0.2734375,0.15625z M76.342578125,54.2578125l0.0390625,0l-0.0390625-0.0390625l0,0.0390625q0,0.01953125,0.01953125,0.0390625t0.01953125,0.0390625q0,0.17578125-0.625,0.48828125q0.0390625-0.0390625,0.15625-0.0390625q0.13671875,0,0.244140625,0.1171875t0.107421875,0.234375q0,0.1953125-0.15625,0.25390625q-0.37109375,0.2734375-0.4296875,0.546875q0.1171875-0.1171875,0.390625-0.1171875q0.15625,0,0.15625,0.1171875q0,0.078125-0.0390625,0.1171875q-0.01953125,0.05859375-0.263671875,0.224609375t-0.244140625,0.224609375q0.078125,0.234375,0.078125,0.3125q0,0.29296875-0.244140625,0.48828125t-0.595703125,0.1953125l-0.13671875,0q-0.0390625,0-0.09765625-0.01953125t-0.09765625-0.01953125q-0.1171875,0-0.390625,0.0390625t-0.41015625,0.0390625l-0.1171875,0l-0.1171875,0q-0.05859375,0-0.52734375,0.15625l-0.078125,0q-0.1953125,0-0.1953125-0.1953125q0-0.0390625,0.078125-0.1171875q-0.01953125,0-0.05859375-0.01953125t-0.05859375-0.01953125q-0.078125,0-0.25390625,0.05859375t-0.234375,0.05859375q-0.09765625,0-0.244140625-0.0390625t-0.224609375-0.0390625l-0.234375,0.078125q-0.234375,0.1171875-0.37109375,0.1171875q-0.1171875,0-0.15625-0.078125q-0.0390625-0.0390625-0.0390625-0.1171875t0.13671875-0.15625t0.13671875-0.1171875l0-0.0390625q-0.0390625-0.0390625-0.15625-0.41015625q-0.01953125-0.01953125-0.107421875-0.09765625t-0.087890625-0.13671875q0-0.0390625,0.1171875-0.15625q0.2734375-0.21484375,0.2734375-0.41015625q0-0.078125-0.0390625-0.224609375t-0.0390625-0.244140625q-0.078125,0.0390625-0.15625,0.0390625q-0.15625,0-0.15625-0.15625q0-0.29296875,0.234375-0.41015625q0-0.0390625-0.078125-0.302734375t-0.078125-0.380859375q0-0.44921875-0.234375-0.83984375q-0.15625,0.078125-0.29296875,0.078125q-0.1953125,0-0.1953125-0.1171875l0.078125-0.15625q-0.234375-0.0390625-0.234375-0.15625q0-0.09765625,0.166015625-0.3125t0.146484375-0.25390625q-0.1171875,0.1171875-0.3125,0.1171875t-0.1953125-0.15625l0-0.0390625q0-0.1171875,0.146484375-0.29296875t0.126953125-0.234375q-0.05859375-0.13671875-0.25390625-0.3125t-0.234375-0.234375q-0.15625-0.15625-0.2734375-0.33203125q-0.0390625-0.0390625-0.1171875-0.0390625q-0.05859375,0-0.166015625,0.0390625t-0.166015625,0.0390625q-0.1171875,0-0.15625-0.0390625t-0.05859375-0.126953125t-0.029296875-0.13671875t-0.068359375-0.048828125q-0.1171875,0-0.283203125-0.068359375t-0.244140625-0.087890625q-0.6640625,0-1.30859375-0.1953125q-0.0390625,0.01953125-0.244140625,0.126953125t-0.29296875,0.205078125t-0.107421875,0.21484375q0.078125,0.234375,0.078125,0.48828125q0,0.1953125-0.0390625,0.2734375q-0.0390625,0.1171875-0.0390625,0.48828125q0,0.3125-0.078125,0.46875q-0.0390625,0.078125-0.0390625,0.37109375q0,0.48828125,0.078125,0.87890625q0.078125,0.703125,0.078125,1.11328125q0,0.2734375-0.01953125,0.78125t-0.01953125,0.7421875q0.1171875,0.703125,0.1171875,0.80078125q0,0.0390625-0.01953125,0.1171875t-0.01953125,0.1171875q0.1171875,0.29296875,0.1171875,0.64453125q0,0.09765625-0.01953125,0.302734375t-0.01953125,0.302734375q0,0.05859375,0.01953125,0.205078125t0.01953125,0.224609375q0,0.44921875-0.1171875,0.80078125q0.0390625,0.0390625,0.0390625,0.1953125q0,0.05859375-0.01953125,0.224609375t-0.01953125,0.224609375q0,0.01953125-0.01953125,0.1171875t-0.01953125,0.1171875l0.0390625,0.078125q0.0390625,0,0.1171875,0.1171875l0.0390625,0.09765625q0,0.078125-0.1953125,0.2734375l0,0.234375l0,0.56640625l0,0.234375q-0.0390625,0.1171875-0.0390625,0.33203125q0,0.1171875,0.01953125,0.380859375t0.01953125,0.400390625l0,0.17578125q0.078125-0.0390625,0.234375-0.0390625q0.44921875,0,0.44921875,0.2734375q0,0.17578125-0.234375,0.3515625q-0.0390625,0.0390625-0.13671875,0.107421875t-0.15625,0.107421875t-0.1171875,0.1171875t-0.078125,0.15625l0,0.1953125q0,0.15625-0.0390625,0.234375q0,0.0390625-0.01953125,0.146484375t-0.01953125,0.146484375q0,0.078125,0.078125,0.078125q0.1953125,0.05859375,0.1953125,0.2734375l0,0.078125q-0.01953125,0.09765625-0.09765625,0.244140625t-0.09765625,0.244140625q0.01953125,0.09765625,0.09765625,0.1953125t0.09765625,0.15625q0.0390625,0.0390625,0.0390625,0.17578125q0,0.15625-0.15625,0.390625l0,0.41015625l0,0.234375q0,0.3125,0.078125,0.390625q0.05859375,0.09765625,0.107421875,0.361328125t0.126953125,0.41015625t0.25390625,0.146484375q0.1171875,0,0.1953125-0.0390625t0.15625-0.0390625q0.09765625,0,0.234375,0.146484375t0.29296875,0.146484375q0.05859375,0,0.76171875,0.1171875l0.1171875,0q0.078125,0,0.2734375-0.01953125t0.29296875-0.01953125q0.15625,0,0.234375,0.0390625q0.33203125-0.25390625,0.72265625-0.25390625q0.078125,0,0.2734375,0.09765625q0.078125,0.05859375,0.263671875,0.107421875t0.283203125,0.146484375t0.09765625,0.33203125q0.078125,0.234375,0.078125,0.95703125q0.0390625,0.15625,0.0390625,0.44921875q0,0.48828125-0.15625,1.11328125q0.0390625-0.0390625,0.1171875-0.0390625q0.13671875,0,0.224609375,0.1171875t0.087890625,0.25390625q0,0.1953125-0.1953125,0.1953125l-0.078125,0l-0.1171875,0q-0.0390625,0-0.05859375,0.009765625t-0.029296875,0.029296875l-0.0390625,0.078125t-0.068359375,0.1171875q0,0.01953125-0.107421875,0.126953125t-0.107421875,0.126953125q0.05859375-0.01953125,0.09765625-0.05859375q-0.87890625,0.33203125-1.2109375,0.33203125l-0.1953125,0q-0.25390625,0-0.33203125-0.078125q-0.15625,0.078125-0.234375,0.078125q-0.01953125,0-0.078125-0.01953125t-0.078125-0.01953125q-0.078125,0.0390625-0.15625,0.0390625t-0.21484375-0.05859375t-0.1953125-0.05859375q-0.0390625,0.0390625-0.078125,0.0390625q-0.078125,0-0.205078125,0.0390625t-0.224609375,0.0390625l-0.078125,0q-0.0390625,0-0.13671875-0.0390625t-0.15625-0.0390625q-0.078125,0.1171875-0.3125,0.1953125q-0.1953125,0-0.1953125-0.234375l-0.21484375,0q-0.46875,0-0.5859375,0.0390625q-0.078125,0.0390625-0.25390625,0.0390625l-0.3515625,0l-0.15625,0q-0.1171875,0.078125-0.37109375,0.078125q-0.234375,0-0.625-0.078125q-0.05859375,0.01953125-0.244140625,0.05859375t-0.244140625,0.05859375l-0.1171875,0q-0.078125,0-0.234375-0.078125q-0.078125,0.078125-0.25390625,0.078125q-0.078125,0-0.283203125,0.01953125t-0.302734375,0.01953125q-0.33203125,0-0.44921875-0.1171875l-0.1171875,0q-0.1171875,0-0.33203125-0.0390625t-0.3125-0.0390625q-0.1171875,0-0.4296875-0.078125q-0.01953125,0-0.13671875,0.05859375t-0.1953125,0.05859375t-0.15625-0.078125q-0.17578125,0.1171875-0.60546875,0.1171875q-0.41015625,0-0.5078125-0.15625q-0.3125,0.234375-0.56640625,0.234375q-0.09765625,0-0.1953125-0.0390625t-0.1171875-0.0390625q-0.09765625,0-0.17578125,0.0390625l-0.078125,0q-0.0390625,0-0.126953125-0.0390625t-0.146484375-0.0390625q-0.0390625,0.0390625-0.1953125,0.0390625q-0.29296875,0-0.44921875-0.078125q-0.15625,0.078125-0.5078125,0.078125q-0.25390625,0-0.41015625-0.0390625q-0.078125,0.0390625-0.234375,0.0390625l-0.41015625,0l-0.1953125,0q-0.46875,0.1171875-0.68359375,0.1171875q-0.60546875,0-0.80078125-0.3515625q-0.1953125-0.33203125-0.1953125-1.2109375q0-0.390625,0.0390625-0.5078125q-0.078125,0.0390625-0.15625,0.0390625t-0.078125-0.09765625t0.1171875-0.33203125l0.1171875-0.21484375q0-0.703125,0.15625-0.91796875q-0.078125-0.15625-0.078125-0.25390625q0-0.234375,0.244140625-0.390625t0.556640625-0.15625q0.33203125,0,0.52734375,0.1953125q0.0390625-0.01953125,0.25390625-0.17578125t0.3515625-0.13671875q0.15625,0,0.15625,0.1953125l0.078125,0q0.078125,0,0.1171875,0.0390625l0.1171875,0q0.09765625,0,0.322265625-0.0390625t0.322265625-0.0390625l0.078125,0q0.1171875,0.01953125,0.302734375-0.1171875t0.263671875-0.13671875q0.09765625,0,0.15625,0.05859375q0.01953125-0.01953125,0.107421875-0.078125t0.126953125-0.05859375q0.29296875-0.37109375,0.56640625-0.5078125q0-0.2734375,0.1171875-0.44921875q0.15625-0.21484375,0.15625-0.5078125q0-0.15625-0.0390625-0.48828125t-0.0390625-0.48828125q0-0.1953125,0.0390625-0.3125l0-0.390625l0-0.17578125l-0.15625-0.546875q0.01953125-0.09765625,0.068359375-0.15625t0.048828125-0.13671875l0-0.3125q-0.1171875-0.3515625-0.1171875-0.99609375q0-0.5078125,0.1171875-0.80078125q0-0.0390625,0.01953125-0.09765625t0.01953125-0.09765625q0-0.09765625-0.0390625-0.302734375t-0.0390625-0.302734375l0-0.1171875q-0.0390625-0.078125-0.0390625-0.33203125q0-0.3515625,0.078125-0.6640625l-0.078125,0.0390625q-0.1953125,0-0.1953125-0.33203125q0-0.1171875,0.0390625-0.15625q0.0390625-0.05859375,0.126953125-0.17578125t0.13671875-0.21484375t0.048828125-0.17578125q0-0.05859375-0.01953125-0.185546875t-0.01953125-0.166015625l0-0.1953125q0-0.25390625-0.078125-0.25390625q-0.1953125-0.05859375-0.1953125-0.234375l0-0.0390625q0-0.0390625,0.09765625-0.126953125t0.09765625-0.107421875l0-0.33203125q-0.0390625-0.078125-0.0390625-0.46875q0-0.25390625,0.0390625-0.33203125q-0.15625-0.3125-0.15625-0.3515625t0.078125-0.1171875q0-0.0390625,0.078125-0.078125l0.078125-0.0390625q0.1171875-0.29296875,0.1171875-0.56640625q0-0.1171875-0.01953125-0.3515625t-0.01953125-0.33203125q-0.0390625-0.1953125-0.0390625-0.60546875l0-0.15625l0-0.390625q0-0.01953125-0.087890625-0.087890625t-0.107421875-0.107421875l0-0.09765625q0-0.17578125,0.2734375-0.3515625q0-0.1953125,0.0390625-0.2734375q-0.1171875-0.1171875-0.1171875-0.44921875l0-0.078125q-0.0390625-0.09765625-0.078125-0.3125t-0.0390625-0.25390625l0-0.234375q0-0.15625-0.0390625-0.234375q-0.1953125-0.05859375-0.1953125-0.234375l0-0.0390625q0.01953125-0.078125,0.09765625-0.166015625t0.09765625-0.166015625l0-0.4296875q0-0.29296875,0.078125-0.68359375q-0.078125,0.0390625-0.44921875,0.0390625q-0.05859375,0-0.244140625,0.01953125t-0.263671875,0.01953125l-0.1171875,0q-0.1953125,0.0390625-0.3515625,0.1171875t-0.322265625,0.205078125t-0.283203125,0.185546875q-0.87890625,0.48828125-1.3671875,0.48828125q0.05859375,0.29296875-0.37109375,0.60546875q-0.3125,0.15625-0.52734375,0.7421875t-0.25390625,0.64453125q-0.01953125,0.1171875-0.13671875,0.615234375t-0.1171875,0.791015625l0,0.15625q0.078125-0.0390625,0.15625-0.0390625q0.09765625,0,0.09765625,0.078125t-0.078125,0.205078125t-0.15625,0.224609375l-0.05859375,0.09765625q0.05859375,0.2734375,0.1171875,0.3515625q0.0390625,0.0390625,0.0390625,0.13671875q0,0.078125-0.1171875,0.1953125q-0.078125,0.05859375-0.107421875,0.146484375t-0.029296875,0.224609375t-0.01953125,0.1953125q-0.01953125,0.09765625-0.029296875,0.166015625t-0.0390625,0.126953125t-0.048828125,0.078125t-0.087890625,0.078125t-0.107421875,0.09765625q-0.29296875,0.29296875-0.64453125,0.29296875q-0.1171875,0-0.33203125-0.048828125t-0.3125-0.048828125q-0.05859375-0.01953125-0.37109375-0.078125t-0.3515625-0.078125q-0.0390625,0-0.13671875,0.01953125t-0.13671875,0.01953125q-0.1953125,0-0.1953125-0.1171875q-0.234375,0.1171875-0.29296875,0.1171875q-0.1171875,0-0.15625-0.078125q-0.0390625-0.0390625-0.1953125-0.0390625l-0.234375,0q-0.09765625,0.01953125-0.3125,0.1171875t-0.33203125,0.1171875q-0.41015625,0-0.41015625-0.3125l0-0.078125q0.09765625-0.3515625,0.17578125-0.52734375l0-0.1171875q0-0.15625,0.0390625-0.1953125q-0.078125-0.1171875-0.078125-0.76171875l0-0.52734375q-0.05859375-0.234375-0.05859375-0.546875q0-0.41015625-0.0390625-0.56640625q-0.1171875,0.078125-0.234375,0.078125t-0.1171875-0.15625q0-0.33203125,0.2734375-0.60546875l0-0.3515625q0-0.37109375,0.078125-0.52734375q0.01953125-0.078125,0.0390625-0.25390625t0.0390625-0.33203125t0.05859375-0.25390625q0-0.078125-0.01953125-0.3125t-0.01953125-0.33203125l0-0.15625l0-0.2734375l0-0.48828125q0-0.64453125,0.1171875-0.91796875q-0.17578125-0.87890625-0.21484375-1.26953125q-0.1171875,0.1171875-0.234375,0.1171875q-0.15625,0-0.15625-0.1953125q0-0.1171875,0.1171875-0.29296875q0.21484375-0.21484375,0.3125-0.5078125l0-0.33203125l0-0.0390625l0-0.1171875q0-0.234375,0.263671875-0.380859375t0.576171875-0.146484375q0.0390625,0,0.126953125,0.01953125t0.126953125,0.01953125q0.13671875-0.01953125,0.76171875-0.087890625t0.95703125-0.068359375l0.3125,0q0.703125,0.078125,1.03515625,0.078125q0.5078125,0,0.9765625-0.15625q0.0390625-0.0390625,0.15625-0.0390625t0.341796875,0.078125t0.341796875,0.078125q0.17578125,0.01953125,0.48828125,0.078125t0.4296875,0.078125l0.2734375,0q0.17578125,0,0.234375,0.05859375q0.1171875-0.05859375,0.25390625-0.05859375l0.078125,0q0.234375-0.078125,0.5078125-0.078125q0.1171875-0.1171875,0.41015625-0.1171875l0.078125,0q0.1171875,0.0390625,0.3515625,0.0390625l0.44921875,0l0.1953125,0q0.09765625,0,0.44921875,0.1171875q0.09765625,0,0.29296875,0.048828125t0.29296875,0.048828125q0.1171875,0,0.33203125-0.13671875q0.15625-0.15625,0.46875-0.15625q0.13671875,0,0.13671875,0.078125q0,0.0390625-0.05859375,0.15625q0.0390625-0.0390625,0.17578125-0.0390625q0.05859375,0,0.1953125,0.01953125t0.1953125,0.01953125l0.1171875,0q0.078125-0.0390625,0.25390625-0.0390625q0.21484375,0,0.5078125,0.09765625q0.09765625-0.09765625,0.29296875-0.09765625l0.3125,0l0.15625,0l0.15625,0l0.37109375,0q0.44921875,0,0.72265625-0.078125q0.09765625-0.01953125,0.29296875-0.13671875t0.33203125-0.09765625q0.33203125,0,0.72265625,0.1953125l0.15625,0l0.29296875,0l0.15625,0q0.25390625,0,0.56640625,0.078125q0.15625-0.078125,0.4296875-0.078125l0.1171875,0q0.0390625,0.0390625,0.15625,0.0390625q0.05859375,0,0.17578125-0.05859375t0.1953125-0.05859375q0.01953125,0,0.05859375,0.01953125t0.05859375,0.01953125q0.078125,0.0390625,0.234375,0.0390625q0.078125,0,0.25390625-0.01953125t0.2734375-0.01953125q0.09765625,0.01953125,0.15625,0.087890625t0.1171875,0.068359375q0.078125,0,0.15625-0.0390625q0.234375-0.15625,0.44921875-0.15625q0.15625,0,0.234375,0.078125l0.25390625,0l0.390625,0q0.29296875,0,0.44921875-0.0390625q0.234375-0.078125,0.390625-0.078125q0.25390625,0,0.72265625,0.1171875q0.1171875-0.0390625,0.3515625-0.0390625q0.15625,0,0.46875,0.0390625t0.44921875,0.0390625q0.15625-0.078125,0.29296875-0.078125q0.1953125,0,0.4296875,0.078125q0.234375-0.078125,0.41015625-0.078125q0.05859375,0,1.11328125,0.1171875q0.48828125,0,0.48828125,0.9765625q0,0.234375-0.0390625,0.3125l0,0.64453125l0,0.3125q0.0390625,0.1171875,0.0390625,0.60546875l0,0.3515625q0,0.29296875-0.0390625,0.41015625q-0.078125,0.1953125-0.078125,0.80078125q0.078125-0.0390625,0.1953125-0.0390625q0.15625,0,0.15625,0.15625q0,0.21484375-0.1953125,0.3515625q-0.15625,0.15625-0.15625,0.29296875l0,0.15625q0,0.1171875-0.0390625,0.234375l0.078125,0q0.1953125,0,0.1953125,0.15625l0,0.0390625q-0.05859375,0.1953125-0.234375,0.25390625l0,0.234375q0.1171875,0.29296875,0.1171875,0.72265625q0.0390625,0.078125,0.0390625,0.3125q0,0.17578125-0.05859375,0.56640625t-0.05859375,0.546875l0.390625-0.1953125q0.1171875,0,0.15625,0.078125z M72.397265625,56.34765625q0.37109375-0.21484375,1.640625-0.95703125q0.078125-0.0390625,0.205078125-0.107421875t0.185546875-0.09765625t0.146484375-0.078125t0.1171875-0.107421875t0.078125-0.126953125t0.048828125-0.166015625l0-0.234375q-0.01953125,0.05859375-0.166015625,0.126953125t-0.341796875,0.13671875t-0.234375,0.087890625q-0.21484375,0.09765625-0.595703125,0.33203125t-0.458984375,0.2734375l-0.21484375,0.107421875t-0.302734375,0.15625t-0.234375,0.17578125t-0.087890625,0.185546875q0.0390625,0.0390625,0.0390625,0.17578125l0,0.078125q0,0.0390625,0.0390625,0.0390625l0.13671875,0z M74.916796875,53.37890625l-0.0390625,0.0390625l0.0390625-0.0390625q-0.17578125,0.3515625-1.015625,1.09375q0.0390625-0.01953125,0.17578125-0.09765625t0.29296875-0.13671875t0.25390625-0.05859375q0.13671875,0,0.1953125,0.15625q0.09765625-0.5859375,0.09765625-0.7421875l0-0.21484375z M74.916796875,52.6171875l0,0.0390625l0-0.0390625q0-0.01953125-0.654296875,0.4296875t-0.830078125,0.5859375q1.07421875-0.80078125,1.34765625-0.80078125q0.09765625,0,0.17578125,0.078125l0-0.078125q0-0.01953125-0.009765625-0.01953125t-0.009765625-0.009765625t-0.009765625-0.05859375t-0.009765625-0.126953125z M71.147265625,52.03125l0.0390625-0.0390625l-0.0390625,0.0390625q0.0390625-0.01953125,0.15625-0.107421875t0.15625-0.107421875q-0.01953125,0.01953125-0.09765625,0.048828125t-0.146484375,0.068359375t-0.068359375,0.09765625z M71.264453125,51.11328125l0.25390625-0.21484375q-0.09765625,0-0.25390625,0.21484375q1.640625-0.9765625,3.515625-1.89453125q0.21484375-0.1171875,0.21484375-0.68359375q0-0.60546875-0.078125-0.91796875q-0.17578125,0.17578125-0.888671875,0.80078125t-1.025390625,0.91796875t-0.830078125,0.810546875t-0.908203125,0.966796875z M74.819140625,50.5859375l-0.0390625,0l0.0390625,0z M74.819140625,51.85546875l0,0.05859375l0-0.05859375q0-0.0390625-0.0390625-0.078125q-0.1953125,0.15625-0.595703125,0.48828125t-0.595703125,0.48828125l0.21484375-0.107421875t0.263671875-0.126953125t0.244140625-0.13671875t0.244140625-0.166015625t0.166015625-0.166015625t0.09765625-0.1953125z M73.627734375,46.953125l0.0390625,0.0390625l-0.0390625-0.0390625q-0.1171875,0.01953125-0.234375,0.029296875t-0.17578125,0.01953125t-0.146484375,0.048828125t-0.205078125,0.13671875q-0.33203125,0.33203125-0.95703125,0.87890625q-1.62109375,1.2890625-2.24609375,1.9140625q0.09765625,0.0390625,0.13671875,0.09765625q0,0.01953125,0.01953125,0.01953125q0.05859375,0,0.17578125-0.078125l0.3515625-0.234375q0.1171875-0.078125,0.341796875-0.263671875t0.341796875-0.263671875q0.13671875-0.09765625,0.673828125-0.478515625t0.849609375-0.556640625q1.26953125-0.95703125,2.109375-1.30859375q-0.05859375-0.05859375-0.15625-0.05859375t-0.341796875,0.068359375t-0.341796875,0.068359375q-0.1171875,0-0.1953125-0.0390625z M69.701953125,46.9921875l0.0390625,0l-0.0390625,0q-0.1171875-0.0390625-0.2734375-0.0390625q-0.1171875,0-0.1953125,0.078125q-0.05859375,0.05859375-0.185546875,0.15625t-0.185546875,0.15625q-0.15625,0.09765625-0.478515625,0.322265625t-0.478515625,0.322265625q-0.8203125,0.56640625-2.32421875,1.484375q0.078125-0.0390625,0.21484375-0.0390625q0.15625,0,0.1953125,0.0390625q0.1171875-0.1171875,0.234375-0.17578125q0.01953125,0,0.05859375-0.01953125t0.05859375-0.01953125q0.0390625,0,0.146484375,0.0390625t0.146484375,0.0390625l0.078125-0.0390625q0.15625-0.078125,0.2734375-0.078125q0.2734375,0,0.37109375,0.15625q0.15625-0.0390625,0.46875-0.2734375q0.17578125-0.1171875,3.2421875-2.1875l-0.1171875,0q-0.05859375,0-0.224609375,0.01953125t-0.224609375,0.01953125q-0.15625,0-0.234375-0.0390625l-0.078125,0q-0.078125,0-0.244140625,0.0390625t-0.244140625,0.0390625z M63.022265625,62.6171875l0.52734375-0.3125q0-0.01953125-0.1953125,0.09765625t-0.33203125,0.21484375q0.2734375-0.15625,0.78125-0.458984375t0.78125-0.458984375q0.078125-0.0390625,0.25390625-0.1171875t0.244140625-0.126953125t0.13671875-0.166015625t0.048828125-0.2734375q-0.25390625,0.3125-0.634765625,0.576171875t-0.869140625,0.556640625t-0.7421875,0.46875z M65.346484375,68.22265625q0.01953125,0.0390625-0.205078125,0.21484375t-0.56640625,0.41015625t-0.6640625,0.439453125t-0.625,0.400390625t-0.341796875,0.21484375q-1.09375,0.76171875-4.19921875,2.79296875q0.64453125-0.234375,1.2890625-0.60546875t1.5234375-0.95703125t1.19140625-0.78125q1.25-0.83984375,2.12890625-1.5234375q0.0390625-0.01953125,0.107421875-0.068359375t0.09765625-0.05859375t0.078125-0.048828125t0.068359375-0.05859375t0.048828125-0.05859375t0.0390625-0.068359375t0.01953125-0.068359375t0.009765625-0.09765625l0-0.078125z M65.268359375,66.38671875l-0.44921875,0.234375q0,0.01953125,0.1171875-0.029296875t0.224609375-0.1171875t0.107421875-0.087890625q-0.76171875,0.4296875-1.572265625,0.95703125t-1.81640625,1.2109375t-1.533203125,1.03515625q1.34765625-0.76171875,3.125-1.93359375q0.01953125-0.01953125,0.576171875-0.29296875t0.87890625-0.517578125t0.341796875-0.458984375z M65.229296875,64.66796875l-0.1171875,0.0390625l0.1171875-0.0390625q-0.1171875,0.078125-0.361328125,0.234375t-0.361328125,0.234375q0.0390625-0.01953125,0.263671875-0.09765625t0.341796875-0.166015625t0.1171875-0.205078125z M65.190234375,65.2734375l-0.37109375,0.234375q0.37109375-0.1953125,0.37109375-0.234375q-0.44921875,0.2734375-4.31640625,2.63671875q-0.0390625,0.01953125-0.87890625,0.625q-0.5078125,0.25390625-0.60546875,0.44921875q-0.0390625,0.09765625-0.17578125,0.2734375t-0.13671875,0.33203125q0.0390625,0.21484375-0.37109375,0.625q0.703125-0.46875,2.080078125-1.396484375t2.080078125-1.396484375q0.3125-0.1953125,0.9375-0.595703125t0.9375-0.595703125t0.400390625-0.283203125t0.087890625-0.283203125q0-0.05859375-0.01953125-0.185546875t-0.01953125-0.205078125z M59.545703125,67.75390625q0.6640625-0.56640625,1.962890625-1.669921875t1.962890625-1.650390625q-1.328125,0.859375-3.359375,2.109375q-0.0390625,0.0390625-0.185546875,0.126953125t-0.263671875,0.166015625t-0.1171875,0.15625q0.0390625,0.078125,0.0390625,0.3515625q0,0.29296875-0.0390625,0.41015625z M59.545703125,66.19140625l0,0.078125q3.515625-2.734375,5.37109375-4.27734375q-2.3828125,1.328125-3.45703125,1.9921875q-0.41015625,0.234375-1.123046875,0.673828125t-0.830078125,0.517578125q0,0.15625,0.01953125,0.498046875t0.01953125,0.517578125z M61.791796875,57.34375l-0.33203125,0.234375q0,0.01953125,0.13671875-0.068359375t0.263671875-0.1953125t0.126953125-0.126953125q-0.0390625,0.0390625-0.1953125,0.15625q-0.95703125,0.76171875-1.71875,1.25q-0.05859375,0.0390625-0.205078125,0.126953125t-0.205078125,0.146484375t-0.126953125,0.146484375t-0.068359375,0.205078125q0,0.13671875,0.0390625,0.21484375q1.77734375-1.5625,5.15625-4.04296875q-0.9375,0.5078125-2.87109375,1.953125z M65.229296875,55.46875l-0.2734375,0.1953125q0.2734375-0.15625,0.2734375-0.1953125q-2.421875,1.7578125-3.4765625,2.59765625q-0.21484375,0.17578125-0.751953125,0.595703125t-0.810546875,0.673828125q-0.05859375,0.0390625-0.166015625,0.126953125t-0.166015625,0.146484375l-0.13671875,0.13671875t-0.107421875,0.166015625t-0.029296875,0.185546875q0.64453125-0.37109375,1.904296875-1.11328125t1.904296875-1.11328125q0.05859375-0.01953125,0.33203125-0.146484375t0.48828125-0.234375t0.46875-0.25390625t0.41015625-0.302734375t0.17578125-0.2734375q-0.078125-0.3125-0.078125-0.76171875q0-0.3125,0.0390625-0.4296875z M59.741015625,60.4296875l0.25390625-0.1171875q-0.09765625,0.0390625-0.25390625,0.1171875q-0.1953125,0.15625-0.1953125,0.4296875l0,0.1953125q1.0546875-0.9375,2.20703125-1.796875q-1.50390625,0.8984375-2.01171875,1.171875z M59.467578125,63.6328125l0.1953125-0.13671875l-0.1953125,0.13671875q0.3515625-0.25390625,1.171875-0.8203125t1.42578125-1.005859375t1.1328125-0.869140625q0.25390625-0.17578125,0.72265625-0.556640625t0.703125-0.556640625q0.05859375-0.05859375,0.2734375-0.224609375t0.3515625-0.3125t0.13671875-0.263671875q-1.9921875,1.484375-4.00390625,2.71484375q-1.015625,0.625-1.7578125,0.91796875q-0.1953125,0.0390625-0.1953125,0.56640625q0,0.09765625,0.01953125,0.234375t0.01953125,0.17578125z M65.346484375,59.74609375q-0.91796875,0.72265625-1.11328125,0.87890625q0.46875-0.234375,0.80078125-0.234375l0.078125,0q0.1953125-0.078125,0.1953125-0.37109375q0-0.1953125,0.0390625-0.2734375z M64.076953125,61.38671875l-0.25390625,0.15625q0.17578125-0.078125,0.25390625-0.15625q-0.2734375,0.15625-0.791015625,0.478515625t-0.771484375,0.478515625q0.703125-0.3515625,1.5625-0.95703125z M62.670703125,60.46875l0.234375-0.15625l-0.83984375,0.546875q0.15625-0.1171875,0.60546875-0.390625q1.50390625-0.99609375,2.71484375-1.93359375l0-0.625q0-0.44921875-0.0390625-0.64453125q-1.6015625,0.99609375-4.04296875,2.83203125q-0.2734375,0.1953125-0.771484375,0.625t-0.654296875,0.546875q-0.1171875,0.09765625-0.185546875,0.17578125t-0.107421875,0.13671875t-0.05859375,0.146484375t-0.029296875,0.13671875t-0.01953125,0.1953125t-0.009765625,0.244140625q1.23046875-0.46875,3.203125-1.8359375z M65.190234375,53.02734375l0-0.0390625l0,0.0390625q-0.0390625-0.078125-0.0390625-0.1953125q-0.234375,0.15625-0.673828125,0.478515625t-0.654296875,0.478515625q0.6640625-0.33203125,0.87890625-0.33203125l0.1171875,0q0.25390625,0.05859375,0.25390625,0.29296875q0,0.1171875-0.078125,0.2734375q-0.1953125,0.3515625-0.56640625,0.732421875t-0.595703125,0.576171875t-0.80078125,0.634765625t-0.673828125,0.498046875q0.17578125-0.1171875,0.625-0.46875t0.732421875-0.556640625t0.703125-0.41015625t0.771484375-0.244140625q0.078125-0.3125,0.078125-0.52734375q0-0.17578125-0.0390625-0.537109375t-0.0390625-0.537109375l0-0.15625z M59.701953125,51.50390625l0.17578125-0.078125q-0.05859375,0-0.17578125,0.078125q-0.2734375,0.1171875-0.2734375,0.15625q0.29296875-0.13671875,0.810546875-0.439453125t0.712890625-0.400390625q-0.83984375,0.44921875-1.25,0.68359375z M68.100390625,46.9921875l-0.234375,0.1171875q0-0.01953125,0.234375-0.1171875q-0.56640625,0.234375-1.11328125,0.537109375t-1.162109375,0.693359375t-1.005859375,0.654296875t-1.11328125,0.771484375t-0.99609375,0.703125q-1.640625,1.0546875-2.55859375,1.71875q-0.078125,0.0390625-0.244140625,0.146484375t-0.234375,0.15625t-0.13671875,0.15625t-0.068359375,0.224609375q0,0.15625,0.0390625,0.2734375q1.484375-1.23046875,4.697265625-3.134765625t4.580078125-2.978515625q-0.46875,0.1171875-0.5078125,0.1171875q-0.13671875,0-0.17578125-0.0390625z M61.147265625,52.65625l0.44921875-0.234375l-0.44921875,0.234375q0.390625-0.234375,1.2109375-0.6640625l1.23046875-0.64453125q0.0390625-0.01953125,0.498046875-0.263671875t0.791015625-0.46875t0.3125-0.341796875q-0.78125,0.390625-2.1875,1.259765625t-1.85546875,1.123046875z M62.397265625,52.79296875l-0.0390625,0.0390625l0.0390625-0.0390625q-0.21484375,0.13671875-1.044921875,0.673828125t-1.240234375,0.869140625q1.11328125-0.625,2.28515625-1.54296875z M64.955859375,50.9765625q-0.21484375,0.15625-0.6640625,0.48828125t-0.6640625,0.48828125q0.8203125-0.56640625,1.2890625-0.76171875q0.29296875-0.1953125,0.3125-0.25390625l0-0.1953125q-0.15625,0.15625-0.2734375,0.234375z M64.233203125,50.3515625l0.234375-0.17578125q-0.1171875,0.09765625-0.234375,0.17578125q0.09765625-0.05859375,0.322265625-0.17578125t0.400390625-0.234375t0.2734375-0.234375q-0.1953125,0.1171875-0.546875,0.3515625t-0.44921875,0.29296875z M65.385546875,49.62890625l0-0.0390625l0.0390625,0l-0.0390625,0.0390625l0.078125-0.078125z M59.662890625,54.0234375q0.1171875-0.05859375,0.1171875-0.078125q-0.1171875,0.0390625-0.1171875,0.078125q0.56640625-0.29296875,1.40625-0.87890625q-0.0390625,0.01953125-0.234375,0.107421875t-0.37109375,0.17578125t-0.37109375,0.1953125t-0.3125,0.21484375t-0.1171875,0.185546875z M61.381640625,54.1796875l-0.4296875,0.33203125q-0.0390625,0,0.64453125-0.44921875q-0.05859375,0.0390625-0.21484375,0.1171875q-1.15234375,0.68359375-1.30859375,1.171875q0,0.0390625,0.0390625,0.0390625q0.1171875,0,0.361328125-0.107421875t0.244140625-0.146484375q0.859375-0.46875,2.67578125-1.953125q0.1953125-0.13671875,0.576171875-0.419921875t0.576171875-0.419921875q0.0390625-0.01953125,0.25390625-0.13671875t0.302734375-0.21484375t0.087890625-0.21484375q-0.3515625,0.234375-1.73828125,1.064453125t-2.0703125,1.337890625z M64.741015625,47.03125q-0.1171875,0-0.1171875,0.078125q0.0390625,0,0.1171875-0.078125q-0.13671875,0.01953125-0.25390625,0.078125t-0.166015625,0.087890625t-0.1953125,0.166015625t-0.185546875,0.17578125q0.3515625-0.25390625,0.80078125-0.5078125z M49.955859375,55.78125l0.0390625-0.0390625l-0.0390625,0.0390625q0-0.01953125,0.322265625-0.3125t0.68359375-0.615234375t0.419921875-0.380859375q0.29296875-0.25390625,0.83984375-0.751953125t0.83984375-0.732421875q-1.23046875,0.703125-2.44140625,1.6796875q-0.21484375,0.15625-0.3515625,0.15625q-0.15625,0-0.15625-0.234375q0-0.2734375,0.1171875-0.44921875q0.17578125-0.25390625,0.439453125-0.52734375t0.419921875-0.41015625t0.546875-0.439453125t0.46875-0.380859375q0.29296875-0.17578125,0.80078125-0.546875t0.56640625-0.41015625q0.078125-0.05859375,0.41015625-0.25390625t0.576171875-0.37109375t0.283203125-0.29296875q-3.28125,1.9921875-4.9609375,2.98828125q0,0.078125,0.068359375,0.478515625t0.068359375,0.615234375l0,0.15625q0.078125,0.390625,0.078125,0.76171875q0,0.1953125-0.0390625,0.2734375z M54.545703125,47.265625l-0.1953125,0.1171875l0.234375-0.15625l-0.0390625,0.0390625q-0.60546875,0.390625-2.03125,1.23046875t-2.16796875,1.328125q1.640625-0.87890625,4.765625-2.87109375l-0.0390625,0q-0.05859375,0-0.52734375,0.3125z M52.983203125,48.7109375l-0.72265625,0.4296875l0.72265625-0.4296875q-1.34765625,0.83984375-2.55859375,1.46484375l-0.17578125,0.087890625t-0.15625,0.09765625t-0.068359375,0.09765625t-0.068359375,0.166015625q0,0.13671875,0.01953125,0.4296875t0.01953125,0.41015625q1.25-1.11328125,3.671875-3.1640625q-0.2734375,0.13671875-0.68359375,0.41015625z M49.780078125,53.10546875l0.13671875-0.078125q-0.13671875,0.0390625-0.13671875,0.078125q0.078125-0.05859375,0.576171875-0.37109375t0.791015625-0.46875q-0.0390625,0.01953125-0.25390625,0.107421875t-0.341796875,0.146484375t-0.3125,0.15625t-0.302734375,0.205078125t-0.15625,0.224609375z M49.994921875,48.828125q0.17578125-0.3125,0.556640625-0.908203125t0.556640625-0.888671875q-0.15625,0.0390625-0.712890625,0.3515625t-0.576171875,0.41015625q0.17578125,0.52734375,0.17578125,0.91796875l0,0.1171875z M55.717578125,49.90234375q0.078125,0,0.1171875-0.078125q-0.01953125,0.01953125-0.05859375,0.0390625t-0.05859375,0.0390625z M60.112109375,47.6171875l-0.41015625,0.25390625q0.33203125-0.21484375,0.41015625-0.25390625q-1.77734375,1.09375-3.515625,2.16796875q1.77734375-1.03515625,3.515625-2.16796875z M59.916796875,48.90625q0,0.01953125,0.05859375-0.01953125t0.1171875-0.09765625l0.05859375-0.0390625q-0.078125,0.0390625-0.234375,0.15625q0,0.01953125,0.087890625-0.029296875t0.185546875-0.1171875t0.1171875-0.087890625q0.60546875-0.33203125,1.03515625-0.60546875q0.33203125-0.15625,0.927734375-0.5078125t0.712890625-0.41015625q-0.0390625,0.0390625-0.15625,0.0390625l-0.15625,0q-0.078125,0-0.15625,0.0390625q-0.13671875,0.09765625-0.419921875,0.283203125t-0.419921875,0.283203125q-0.91796875,0.52734375-1.7578125,1.11328125z M59.350390625,47.0703125q-0.13671875-0.01953125-0.37109375,0.126953125t-0.5078125,0.380859375t-0.37109375,0.29296875q-0.25390625,0.17578125-0.76171875,0.537109375t-0.78125,0.537109375q2.40234375-1.40625,3.14453125-1.796875q-0.05859375,0-0.17578125-0.0390625t-0.17578125-0.0390625z M58.549609375,46.9140625l-0.3515625,0.15625l0.3515625-0.15625q-0.3125,0.13671875-0.60546875,0.283203125t-0.634765625,0.33203125t-0.576171875,0.3125t-0.625,0.37109375t-0.556640625,0.3515625t-0.60546875,0.400390625t-0.546875,0.361328125t-0.60546875,0.400390625l-0.556640625,0.37109375q3.1640625-1.81640625,5.390625-3.18359375l-0.078125,0z M53.061328125,53.53515625l0,0.05859375l0-0.05859375q-0.68359375,0.56640625-0.80078125,0.64453125q-0.17578125,0.15625-0.537109375,0.478515625t-0.537109375,0.478515625q-0.01953125,0.01953125-0.390625,0.33203125t-0.595703125,0.576171875t-0.205078125,0.419921875q0.41015625,0.0390625,0.810546875-0.126953125t0.966796875-0.546875t0.7421875-0.478515625q0.3125-0.17578125,0.3125-0.41015625q0-0.29296875,0.078125-0.52734375l0-0.1171875q0-0.48828125,0.15625-0.72265625z M53.783984375,51.66015625q0,0.0390625-0.80078125,0.56640625q-0.52734375,0.37109375-0.83984375,0.64453125q-0.83984375,0.60546875-1.34765625,1.19140625q1.328125-1.03515625,2.1875-1.4453125q0.05859375-0.0390625,0.146484375-0.068359375t0.146484375-0.05859375t0.1171875-0.078125t0.078125-0.107421875l0-0.0390625q0-0.37109375,0.3125-0.60546875z M59.545703125,50.05859375l0.0390625-0.0390625l-0.0390625,0.0390625l0,0.21484375q2.94921875-1.89453125,4.31640625-3.1640625q-0.41015625,0.234375-1.25,0.703125t-1.26953125,0.72265625q-0.2734375,0.13671875-0.791015625,0.44921875t-0.771484375,0.44921875q-0.0390625,0.0390625-0.15625,0.107421875t-0.15625,0.087890625q0.078125,0.2734375,0.078125,0.390625l0,0.0390625z M56.342578125,47.109375l-0.0390625,0l0.0390625,0q-0.078125,0.0390625-0.1953125,0.0390625q-0.05859375,0-0.15625-0.0390625t-0.15625-0.0390625q-0.13671875,0-0.21484375,0.078125q-0.13671875,0.1171875-0.419921875,0.341796875t-0.419921875,0.341796875q-0.859375,0.80078125-1.50390625,1.26953125q-0.17578125,0.13671875-1.220703125,1.044921875t-1.591796875,1.396484375q4.6875-3.28125,7.01171875-4.55078125q-0.01953125,0-0.21484375,0.05859375t-0.234375,0.05859375l-0.234375,0l-0.44921875,0z M52.026171875,46.9140625q-0.0390625,0-0.0390625,0.0390625q0.0390625,0,0.0390625-0.0390625q-0.01953125,0-0.068359375,0.01953125t-0.087890625,0.01953125l-0.15625,0q-0.1171875,0-0.1953125,0.1171875q-0.078125,0.13671875-0.244140625,0.400390625t-0.244140625,0.400390625q-0.13671875,0.21484375-0.400390625,0.654296875t-0.400390625,0.654296875q0.9765625-0.46875,3.80859375-2.2265625q-0.09765625-0.01953125-0.33203125,0.048828125t-0.3125,0.068359375q-0.1171875,0-0.15625-0.0390625q-0.078125-0.0390625-0.29296875-0.0390625q-0.078125,0-0.244140625,0.01953125t-0.263671875,0.01953125q-0.234375,0-0.41015625-0.1171875z M59.428515625,51.19140625q0-0.01953125,0.3515625-0.205078125t0.751953125-0.390625t0.458984375-0.244140625q1.50390625-0.8203125,2.20703125-1.25q0.1171875-0.05859375,0.625-0.361328125t0.712890625-0.4296875t0.595703125-0.390625t0.68359375-0.48828125t0.56640625-0.478515625q-0.09765625-0.01953125-0.234375,0.009765625t-0.1953125,0.029296875q-0.15625,0-0.234375-0.078125q-0.3125,0.05859375-0.9765625,0.546875q-0.9765625,0.64453125-2.3046875,1.5625q-1.015625,0.7421875-2.05078125,1.40625q-0.078125,0.05859375-0.263671875,0.166015625t-0.283203125,0.17578125t-0.21484375,0.185546875t-0.1953125,0.234375z M59.662890625,56.30859375l0-0.0390625l0,0.0390625q0-0.0390625,0.83984375-0.60546875q-0.234375,0.078125-0.3125,0.078125q-0.44921875,0-0.44921875-0.390625q0-0.2734375,0.21484375-0.48828125q-0.05859375,0.01953125-0.1171875,0.029296875t-0.087890625,0.009765625l-0.05859375,0t-0.048828125,0.009765625t-0.0390625,0.029296875t-0.029296875,0.05859375t-0.029296875,0.09765625q0,0.0390625,0.01953125,0.1953125t0.01953125,0.21484375q0.078125,0.3125,0.078125,0.60546875l0,0.15625z M59.428515625,58.14453125q0-0.1171875,2.16796875-1.5625q0.95703125-0.72265625,1.875-1.5234375q0.078125-0.078125,0.302734375-0.263671875t0.361328125-0.302734375t0.29296875-0.302734375t0.234375-0.361328125q-0.2734375,0.05859375-1.30859375,0.68359375q-0.72265625,0.44921875-2.16796875,1.42578125q-1.328125,0.8203125-1.640625,1.25q-0.0390625,0.1171875-0.05859375,0.283203125t-0.029296875,0.37109375t-0.029296875,0.302734375z M59.467578125,64.55078125l0,0.1171875q0.3125-0.21484375,0.8984375-0.64453125t0.8984375-0.64453125q-0.21484375,0.09765625-0.751953125,0.361328125t-0.849609375,0.400390625q-0.1953125,0.09765625-0.1953125,0.234375l0,0.17578125z M57.260546875,70.3125q-0.15625,0.21484375-0.478515625,0.390625t-0.439453125,0.3125q-0.68359375,0.703125-1.42578125,1.3671875q0.5859375-0.17578125,1.142578125-0.478515625t1.38671875-0.849609375t1.025390625-0.6640625q-0.0390625,0.0390625-0.15625,0.0390625q-0.09765625,0-0.263671875-0.087890625t-0.263671875-0.068359375q-0.078125,0.078125-0.2734375,0.078125q-0.17578125,0-0.25390625-0.0390625z M56.342578125,72.6953125l0.078125-0.0390625l-0.078125,0.0390625q0.41015625-0.21484375,1.71875-1.11328125q-0.37109375,0.1953125-1.07421875,0.625t-1.07421875,0.625q0.078125,0,0.21484375-0.068359375t0.21484375-0.068359375z M54.584765625,72.1484375q0.17578125-0.15625,0.517578125-0.478515625t0.517578125-0.478515625q-0.546875,0.33203125-0.95703125,0.546875q-0.078125,0.0390625-0.078125,0.21484375l0,0.15625l0,0.0390625z M54.916796875,72.79296875l0.0390625,0l-0.078125,0l0.0390625,0l0.15625,0q0.17578125,0,0.4296875-0.25390625l-0.87890625,0.29296875l0.0390625,0q0.0390625,0,0.126953125-0.01953125t0.126953125-0.01953125z M57.866015625,72.87109375q0.05859375,0,0.185546875-0.09765625t0.29296875-0.244140625t0.205078125-0.185546875q0.76171875-0.44921875,1.15234375-0.76171875q0.41015625-0.25390625,1.2109375-0.76171875t1.19140625-0.76171875q0.15625-0.1171875,1.103515625-0.771484375t1.416015625-1.025390625q0.68359375-0.5078125,0.68359375-0.60546875l0-0.5859375q-0.15625,0.0390625-0.390625,0.1953125q0.1171875,0.05859375,0.1171875,0.1171875q0,0.17578125-0.4296875,0.439453125t-0.625,0.322265625q-0.3515625,0.1953125-1.044921875,0.595703125t-1.025390625,0.595703125q-0.9375,0.546875-2.568359375,1.767578125t-2.353515625,1.689453125q0.234375,0.078125,0.44921875,0.078125l0.3125,0l0.1171875,0z M60.190234375,72.6953125q0.0390625,0,0.13671875-0.068359375t0.09765625-0.087890625q-0.0390625,0.0390625-0.234375,0.15625q0.17578125,0.05859375,0.3125,0.05859375q0.3125,0,0.68359375-0.185546875t0.615234375-0.37109375t0.64453125-0.537109375t0.498046875-0.4296875q0.234375-0.15625,1.875-1.40625q0.01953125-0.01953125,0.25390625-0.166015625t0.380859375-0.2734375t0.126953125-0.205078125q-0.390625,0.15625-1.0546875,0.693359375t-0.8984375,0.673828125q-1.19140625,0.8203125-3.4375,2.1484375z M63.198046875,72.91015625q0.05859375-0.01953125,0.13671875-0.078125t0.146484375-0.09765625t0.146484375-0.0390625l0.1953125,0.09765625q0.09765625-0.09765625,0.302734375-0.322265625t0.302734375-0.322265625q0.3125-0.3125,0.8984375-0.95703125t0.8984375-0.9765625q-0.1171875-0.01953125-0.29296875,0.029296875t-0.2734375,0.107421875t-0.3125,0.1953125t-0.234375,0.15625q-0.64453125,0.3515625-1.1328125,0.68359375q-1.81640625,1.11328125-2.34375,1.4453125q0.0390625,0.01953125,0.6640625,0.1171875l0.13671875,0l0.3125-0.078125l0.078125,0q0.0390625,0,0.1171875,0.0390625t0.1171875,0.0390625q0.01953125,0,0.068359375-0.01953125t0.068359375-0.01953125z M66.948046875,72.6953125l-0.0390625,0l0.0390625,0l0.1953125,0q0.1171875,0,0.25390625-0.234375q0.01953125-0.01953125,0.166015625-0.205078125t0.224609375-0.302734375q0.859375-1.11328125,0.87890625-1.1328125q-0.546875,0.3515625-1.689453125,1.015625t-1.708984375,0.99609375q0.05859375-0.01953125,0.302734375-0.078125t0.380859375-0.05859375l0.1171875,0q0.078125,0,0.166015625,0.029296875t0.146484375,0.029296875l0.13671875,0q0.05859375-0.05859375,0.3125-0.05859375l0.1171875,0z M69.877734375,72.3046875l0.0390625,0l0-0.0390625l-0.0390625,0.0390625l0.0390625,0.078125q0,0.05859375-0.048828125,0.166015625t-0.048828125,0.146484375q0.05859375-0.01953125,0.107421875-0.048828125t0.068359375-0.087890625t0.029296875-0.09765625t0.029296875-0.13671875t0.01953125-0.13671875q-0.0390625,0.01953125-0.09765625,0.05859375t-0.09765625,0.05859375z M67.905078125,73.7890625l0.0390625,0l-0.0390625,0l-0.1171875,0.078125l0.2734375-0.15625q-0.0390625,0-0.15625,0.078125z M69.916796875,70.625l0.0390625,0l-0.0390625,0q-0.5859375-0.05859375-1.015625,0.52734375q-0.09765625,0.1171875-0.546875,0.712890625t-0.68359375,0.927734375q0.15625,0.0390625,0.3515625-0.05859375t0.4296875-0.263671875t0.33203125-0.205078125q0.52734375-0.390625,0.99609375-0.60546875q0.078125-0.0390625,0.17578125-0.078125t0.1171875-0.068359375t0.048828125-0.087890625t0.029296875-0.1953125q-0.0390625-0.15625-0.0390625-0.60546875l-0.1953125,0z M67.592578125,70.46875l-0.078125,0q-0.48828125,0-0.72265625-0.15625q-0.25390625,0.05859375-0.80078125,0.703125q-0.0390625,0.0390625-0.48828125,0.5078125t-0.810546875,0.87890625t-0.302734375,0.46875q0.6640625-0.33203125,3.88671875-2.24609375q-0.078125-0.05859375-0.1953125-0.087890625t-0.2734375-0.0390625t-0.21484375-0.029296875z M64.116015625,70.8203125q0.234375-0.1171875,0.64453125-0.361328125t0.625-0.361328125q0.05859375-0.0390625,0.107421875-0.068359375t0.078125-0.048828125t0.068359375-0.0390625t0.048828125-0.029296875t0.01953125-0.0390625t0.009765625-0.048828125l0-0.15625q-0.2734375,0.1953125-0.810546875,0.5859375t-0.791015625,0.56640625z M66.147265625,64.1796875l0.0390625-0.0390625q-0.0390625,0-0.0390625,0.0390625q0.01953125-0.01953125,0.078125-0.05859375t0.078125-0.05859375q-0.15625,0-0.15625,0.1171875z M64.994921875,64.3359375l-0.25390625,0.17578125q0.05859375-0.05859375,0.25390625-0.17578125q0.3125-0.21484375,0.3125-1.03515625q0-0.25390625-0.01953125-0.625t-0.01953125-0.48828125q-2.75390625,2.20703125-3.92578125,3.125q0.8984375-0.5859375,2.32421875-1.4453125q0.625-0.44921875,0.99609375-0.52734375l0.078125,0q0.21484375,0,0.21484375,0.1953125q0,0.13671875-0.078125,0.21484375q-0.1171875,0.09765625-0.361328125,0.29296875t-0.361328125,0.29296875q-2.94921875,2.55859375-4.00390625,3.41796875q0.9375-0.52734375,2.548828125-1.7578125t2.294921875-1.66015625z M69.076953125,49.78515625l0.0390625,0l-0.0390625,0q0.1953125,0.0390625,0.517578125-0.205078125t0.673828125-0.60546875t0.44921875-0.439453125q1.15234375-0.9375,1.8359375-1.58203125q-0.078125-0.0390625-0.29296875-0.0390625t-0.458984375,0.087890625t-0.3515625,0.13671875t-0.44921875,0.2734375t-0.380859375,0.244140625q-0.87890625,0.56640625-2.55859375,1.77734375q0.1953125-0.01953125,0.52734375,0.15625t0.48828125,0.1953125z M70.112109375,50.4296875q0.37109375,0.3125,0.64453125,0.72265625q1.1328125-1.46484375,3.90625-3.80859375q-0.234375,0.09765625-1.3671875,0.869140625t-2.1484375,1.494140625z M71.635546875,52.83203125q-0.1171875,0-0.1171875,0.15625q0,0.13671875,0.13671875,0.4296875t0.13671875,0.33203125q0.25390625-0.1953125,0.732421875-0.60546875t0.712890625-0.60546875q-0.8984375,0.60546875-1.2109375,0.68359375l-0.1171875,0q-0.3515625,0-0.3515625-0.1953125q0-0.1171875,0.078125-0.1953125z M71.869921875,54.2578125l0.078125-0.0390625l-0.078125,0.0390625q0.078125-0.05859375,0.244140625-0.17578125t0.244140625-0.17578125q-0.01953125,0.01953125-0.166015625,0.087890625t-0.234375,0.126953125t-0.087890625,0.13671875z M72.104296875,55.3515625l0,0.078125q1.6015625-1.2109375,2.24609375-1.93359375q-0.3125,0.17578125-0.908203125,0.56640625t-0.888671875,0.56640625q-0.05859375,0.0390625-0.166015625,0.09765625t-0.17578125,0.087890625t-0.1171875,0.09765625t-0.068359375,0.146484375q0.01953125,0.0390625,0.0390625,0.146484375t0.0390625,0.146484375z"/><path fill="#" d="M85.862890625,61.40234375q0-0.478515625,0.328125-0.6083984375t0.7109375-0.1298828125q0.669921875,0,1.134765625,0.6015625t0.8818359375,1.3193359375t0.8271484375,1.3193359375t0.970703125,0.6015625q0.423828125,0,0.7724609375-0.2119140625t0.6015625-0.533203125t0.3896484375-0.724609375t0.13671875-0.7998046875q0-1.0390625-0.4169921875-2.146484375t-1.06640625-2.283203125t-1.3740234375-2.40625t-1.3671875-2.501953125t-1.06640625-2.5908203125t-0.423828125-2.6591796875q0-2.009765625,1.203125-3.1171875t3.171875-1.107421875q0.669921875,0,1.353515625,0.19140625t1.2578125,0.57421875t0.9365234375,0.943359375t0.3623046875,1.3125q0,0.24609375-0.3623046875,0.3212890625t-0.5263671875,0.0751953125q-0.24609375,0-0.533203125-0.0615234375t-0.369140625-0.3349609375t-0.232421875-0.62890625t-0.3759765625-0.6630859375t-0.533203125-0.533203125t-0.6767578125-0.2255859375q-0.615234375,0-1.0458984375,0.2529296875t-0.697265625,0.6767578125t-0.396484375,0.9501953125t-0.1298828125,1.0869140625q0,1.3125,0.451171875,2.6455078125t1.12109375,2.65234375t1.4560546875,2.6044921875t1.4560546875,2.501953125t1.12109375,2.37890625t0.451171875,2.201171875q0,0.9296875-0.4375,1.572265625t-1.107421875,1.0458984375t-1.4833984375,0.587890625t-1.5927734375,0.1845703125q-0.833984375,0-1.708984375-0.3349609375t-1.572265625-0.9228515625t-1.1484375-1.3740234375t-0.451171875-1.7021484375z M97.88962890625,59.16015625q0-0.779296875,0.1982421875-1.6064453125t0.62890625-1.490234375t1.0869140625-1.080078125t1.5859375-0.4169921875q0.697265625,0,1.4697265625,0.2392578125t1.4150390625,0.68359375t1.0458984375,1.0869140625t0.4033203125,1.435546875q0,0.95703125-0.3486328125,1.818359375t-0.9775390625,1.5380859375t-1.4697265625,1.06640625t-1.8251953125,0.3896484375q-0.806640625,0-1.408203125-0.2939453125t-1.0048828125-0.7861328125t-0.6015625-1.162109375t-0.1982421875-1.421875z M99.89939453125,59.1328125q0,0.24609375,0.0751953125,0.724609375t0.2255859375,0.9365234375t0.3896484375,0.79296875t0.5810546875,0.3076171875q0.724609375-0.08203125,1.1962890625-0.4716796875t0.765625-0.9501953125t0.41015625-1.216796875t0.1162109375-1.244140625q0-0.751953125-0.2939453125-1.2578125t-0.9638671875-0.8203125q0,0.02734375,0.02734375,0.02734375t0.02734375-0.02734375l-0.341796875-0.08203125q-0.13671875-0.0546875-0.3349609375-0.123046875t-0.3896484375-0.30078125q-0.533203125,0.19140625-0.8271484375,0.4921875t-0.4443359375,0.7314453125t-0.1845703125,1.0322265625t-0.0341796875,1.44921875z M108.2483984375,63.75390625q0-0.396484375,0.0341796875-0.833984375t0.0615234375-0.8203125l0.08203125-2.05078125q0.13671875-2.4609375,0.3349609375-4.83984375t0.3349609375-4.8125q0.08203125-1.33984375,0.123046875-2.6318359375t0.123046875-2.6318359375q-0.0546875-0.109375-0.0546875-0.150390625q0-0.19140625,0.1435546875-0.30078125t0.3349609375-0.1845703125t0.4033203125-0.1025390625t0.3212890625-0.02734375l0.314453125,0q0.423828125,0.0546875,0.615234375,0.2666015625t0.24609375,0.505859375t0.02734375,0.62890625t-0.02734375,0.6220703125q0,1.982421875-0.095703125,4.0400390625t-0.21875,4.12890625t-0.2255859375,4.142578125t-0.1025390625,4.0947265625l0,0.95703125q0,0.642578125-0.3623046875,0.84765625t-1.0048828125,0.205078125q-0.560546875,0-0.984375-0.24609375t-0.423828125-0.806640625z M113.95873046875,57.697265625q0-0.2734375,0.0615234375-0.724609375t0.1435546875-0.8955078125t0.19140625-0.8271484375t0.259765625-0.4921875q0.109375-0.109375,0.3759765625-0.21875t0.560546875-0.1572265625t0.546875,0.041015625t0.3076171875,0.3623046875q-0.19140625,0.24609375-0.3486328125,0.8408203125t-0.2392578125,1.3193359375q-0.068359375,0.615234375-0.068359375,1.271484375l0,0.232421875q0.013671875,0.765625,0.13671875,1.408203125t0.3759765625,1.0595703125t0.7041015625,0.4169921875q0.95703125,0,1.75-0.8818359375t1.408203125-2.1533203125t1.080078125-2.7001953125t0.79296875-2.4951171875q0.08203125-0.314453125,0.3896484375-0.423828125t0.6630859375-0.0751953125t0.6357421875,0.1708984375t0.3349609375,0.328125q-0.2734375,2.296875-0.4306640625,4.59375t-0.1572265625,4.62109375q0,0.451171875,0.041015625,0.8271484375t-0.041015625,0.642578125t-0.3623046875,0.423828125t-0.8955078125,0.1572265625q-0.13671875,0-0.3486328125-0.02734375t-0.4375-0.0888671875t-0.3828125-0.1845703125t-0.1572265625-0.287109375q0-1.01171875,0.0751953125-2.078125t0.2119140625-2.064453125q-0.369140625,0.533203125-0.8134765625,1.0595703125t-0.9775390625,0.9501953125t-1.1484375,0.6767578125t-1.326171875,0.2529296875q-1.01171875,0-1.5927734375-0.478515625t-0.875-1.1962890625t-0.369140625-1.5654296875t-0.0751953125-1.640625z M126.25890625,50.21875q0-0.19140625,0.41015625-0.328125t0.9296875-0.2255859375t1.0048828125-0.1298828125t0.6630859375-0.068359375q0-0.369140625,0.02734375-0.7451171875t0.150390625-0.669921875t0.3896484375-0.4716796875t0.7451171875-0.177734375q0.396484375,0,0.6015625,0.095703125t0.4375,0.396484375q0.0546875,0.1640625,0.0546875,0.314453125l0,0.4580078125t-0.02734375,0.4716796875q0.505859375-0.0546875,1.0048828125-0.1298828125t1.0048828125-0.0751953125q0.369140625,0,0.505859375,0.013671875t0.2734375,0.328125q0.109375,0.314453125-0.2666015625,0.478515625t-0.90234375,0.24609375t-1.0458984375,0.123046875t-0.62890625,0.041015625q-0.1640625,2.3515625-0.3349609375,4.662109375t-0.1708984375,4.689453125q0,1.06640625,0.068359375,2.201171875t0.3828125,2.146484375q0.08203125,0.314453125,0.2734375,0.587890625t0.19140625,0.587890625q0,0.19140625-0.150390625,0.30078125t-0.3623046875,0.1845703125t-0.423828125,0.0888671875t-0.3486328125,0.013671875q-0.861328125,0-1.3125-0.642578125t-0.6494140625-1.5380859375t-0.2119140625-1.8388671875t-0.013671875-1.53125q0-1.203125,0.0478515625-2.4609375t0.1162109375-2.48828125t0.19140625-2.40625t0.287109375-2.1875q-0.478515625,0.0546875-0.9365234375,0.123046875t-0.9365234375,0.068359375q-0.109375,0-0.2939453125-0.013671875t-0.3486328125-0.068359375t-0.2802734375-0.150390625t-0.1162109375-0.2734375z M136.71337890625,58.572265625q0-1.2578125,0.2939453125-2.4677734375t0.4990234375-2.4130859375q0.0546875-0.314453125,0.4306640625-0.3896484375t0.6357421875-0.0751953125q0.451171875,0,0.724609375,0.13671875q0.109375,0.0546875,0.205078125,0.123046875t0.095703125,0.177734375q0,1.17578125-0.2802734375,2.296875t-0.2802734375,2.37890625q0,0.423828125,0.0615234375,0.7998046875t0.1162109375,0.7451171875l0.08203125,0.396484375q0,0.109375,0.013671875,0.19140625t0.041015625,0.19140625q0,0.24609375-0.3486328125,0.3349609375t-0.6083984375,0.0888671875q-0.396484375,0-0.7314453125-0.1572265625t-0.5263671875-0.5400390625l-0.19140625-0.396484375q-0.1640625-0.314453125-0.1640625-0.7041015625t-0.068359375-0.7177734375z M137.58837890625,50.341796875l0-0.259765625q0-0.642578125,0.3212890625-1.1484375t0.9638671875-0.505859375q0.08203125,0,0.1572265625,0.013671875t0.1572265625,0.013671875q0.1640625,0.02734375,0.4306640625,0.1298828125t0.2666015625,0.3212890625l0,0.02734375q-0.0546875,0.109375-0.068359375,0.2255859375t-0.068359375,0.1982421875l0.02734375-0.02734375q-0.1640625,0.423828125-0.2666015625,0.68359375t-0.2255859375,0.4169921875t-0.3076171875,0.2255859375t-0.5263671875,0.068359375q-0.0546875,0-0.19140625-0.013671875t-0.2939453125-0.0546875t-0.2666015625-0.109375t-0.109375-0.205078125z M142.4100390625,59.16015625q0-0.779296875,0.1982421875-1.6064453125t0.62890625-1.490234375t1.0869140625-1.080078125t1.5859375-0.4169921875q0.697265625,0,1.4697265625,0.2392578125t1.4150390625,0.68359375t1.0458984375,1.0869140625t0.4033203125,1.435546875q0,0.95703125-0.3486328125,1.818359375t-0.9775390625,1.5380859375t-1.4697265625,1.06640625t-1.8251953125,0.3896484375q-0.806640625,0-1.408203125-0.2939453125t-1.0048828125-0.7861328125t-0.6015625-1.162109375t-0.1982421875-1.421875z M144.4198046875,59.1328125q0,0.24609375,0.0751953125,0.724609375t0.2255859375,0.9365234375t0.3896484375,0.79296875t0.5810546875,0.3076171875q0.724609375-0.08203125,1.1962890625-0.4716796875t0.765625-0.9501953125t0.41015625-1.216796875t0.1162109375-1.244140625q0-0.751953125-0.2939453125-1.2578125t-0.9638671875-0.8203125q0,0.02734375,0.02734375,0.02734375t0.02734375-0.02734375l-0.341796875-0.08203125q-0.13671875-0.0546875-0.3349609375-0.123046875t-0.3896484375-0.30078125q-0.533203125,0.19140625-0.8271484375,0.4921875t-0.4443359375,0.7314453125t-0.1845703125,1.0322265625t-0.0341796875,1.44921875z M152.78248046875,58.96875l0-0.396484375q0-0.4921875,0.02734375-0.9296875q0.02734375-0.615234375,0.02734375-1.01171875q0-0.21875,0.02734375-0.4990234375t0.13671875-0.4443359375q0.13671875-0.13671875,0.3212890625-0.2802734375t0.4033203125-0.1435546875q0.697265625,0,1.09375,0.1572265625t0.423828125,0.6494140625l0.0546875,0.423828125q0.24609375-0.587890625,0.65625-1.4560546875t0.9501953125-1.654296875t1.216796875-1.33984375t1.4287109375-0.5537109375q0.697265625,0,1.1484375,0.65625t0.7177734375,1.6748046875t0.3759765625,2.26953125t0.150390625,2.4541015625t0.0546875,2.1943359375t0.095703125,1.4970703125q0.0546875,0.423828125,0.1845703125,0.8955078125t0.1298828125,0.8681640625q0,0.109375-0.1572265625,0.2119140625t-0.3349609375,0.1708984375t-0.3623046875,0.109375t-0.2666015625,0.041015625q-0.533203125,0-0.7587890625-0.7998046875t-0.2802734375-2.0029296875t-0.0546875-2.6044921875t-0.095703125-2.6044921875t-0.3896484375-2.0029296875t-0.9365234375-0.8271484375q-0.587890625,0-1.216796875,0.7587890625t-1.080078125,2.0166015625q-0.4375,1.2578125-0.6015625,2.857421875q-0.0546875,0.505859375-0.0546875,1.01171875q0,1.107421875,0.232421875,2.21484375q0.02734375,0.19140625-0.1572265625,0.287109375t-0.4580078125,0.150390625t-0.5537109375,0.068359375t-0.4306640625,0.013671875q-0.533203125,0-0.8544921875-0.3759765625t-0.4990234375-0.9638671875t-0.2392578125-1.3193359375t-0.0751953125-1.4423828125z M165.205703125,55.373046875q0-0.560546875,0.328125-0.9638671875t0.7998046875-0.65625t1.0322265625-0.3759765625t1.0390625-0.123046875q0.369140625,0,0.984375,0.109375t1.203125,0.328125t1.0185546875,0.57421875t0.4306640625,0.833984375q0,0.21875-0.1640625,0.3896484375t-0.341796875,0.1708984375q-0.369140625,0-0.669921875-0.2392578125t-0.6220703125-0.505859375t-0.7041015625-0.505859375t-0.861328125-0.2392578125t-0.8681640625,0.3076171875t-0.3896484375,0.8134765625q0,0.833984375,0.587890625,1.6337890625t1.2919921875,1.681640625t1.2919921875,1.8525390625t0.587890625,2.146484375q0,0.505859375-0.2119140625,0.8544921875t-0.560546875,0.5673828125t-0.7861328125,0.3349609375t-0.84765625,0.1162109375q-0.451171875,0-1.052734375-0.2119140625t-1.134765625-0.560546875t-0.8955078125-0.8134765625t-0.3623046875-0.970703125q0-0.24609375,0.3486328125-0.314453125t0.5126953125-0.068359375q0.08203125,0,0.2529296875,0.0546875t0.3349609375,0.123046875t0.2939453125,0.150390625t0.1025390625,0.177734375q0.13671875,0.1640625,0.4169921875,0.4853515625t0.560546875,0.51953125t0.4921875,0.1435546875t0.2119140625-0.615234375q0-1.06640625-0.57421875-1.9619140625t-1.2509765625-1.75t-1.2509765625-1.6953125t-0.57421875-1.7978515625z"/></svg>
